<svg width="176" height="294" viewBox="0 0 176 294" fill="none" xmlns="http://www.w3.org/2000/svg">
<path d="M3.81693 63.1768L43.5896 4.32855C44.1534 3.4943 45.2633 3.05445 46.6978 3.10581C48.1212 3.15677 49.7712 3.69545 51.249 4.6942L374.26 223.002C375.915 224.12 377.119 225.514 377.782 226.88C378.441 228.236 378.543 229.509 378.119 230.472L338.37 289.285C337.808 290.117 336.702 290.558 335.228 290.479C333.764 290.401 332.024 289.807 330.367 288.687L7.35603 70.3797C5.69922 69.2599 4.49929 67.8676 3.88077 66.5379C3.25815 65.1994 3.25488 64.0084 3.81693 63.1768Z" stroke="#DDDDDD"/>
</svg>
