<svg width="190" height="332" viewBox="0 0 190 332" fill="none" xmlns="http://www.w3.org/2000/svg">
<path d="M137.918 328.194L185.773 275.707C186.451 274.963 186.618 273.781 186.231 272.399C185.847 271.027 184.936 269.55 183.618 268.348L-104.478 5.67876C-105.955 4.33286 -107.592 3.49039 -109.076 3.16693C-110.549 2.84569 -111.81 3.04512 -112.647 3.68368L-160.473 56.139C-161.149 56.8807 -161.318 58.0597 -160.895 59.4741C-160.475 60.8792 -159.489 62.4302 -158.011 63.7775L130.085 326.447C131.563 327.794 133.198 328.633 134.636 328.922C136.083 329.213 137.242 328.936 137.918 328.194Z" stroke="#DDDDDD"/>
</svg>
