<svg width="187" height="328" viewBox="0 0 187 328" fill="none" xmlns="http://www.w3.org/2000/svg">
<path d="M137.918 326.194L185.773 273.707C186.451 272.963 186.618 271.781 186.231 270.399C185.847 269.027 184.936 267.55 183.618 266.348L-104.478 3.67876C-105.955 2.33286 -107.592 1.49039 -109.076 1.16693C-110.549 0.845694 -111.81 1.04512 -112.647 1.68368L-160.473 54.139C-161.149 54.8807 -161.318 56.0597 -160.895 57.4741C-160.475 58.8792 -159.489 60.4302 -158.011 61.7775L130.085 324.447C131.563 325.794 133.198 326.633 134.636 326.922C136.083 327.213 137.242 326.936 137.918 326.194Z" stroke="#DDDDDD"/>
</svg>
