<svg width="81" height="80" viewBox="0 0 81 80" fill="none" xmlns="http://www.w3.org/2000/svg">
<path d="M43.8695 40.2C50.5522 40.2 55.9695 34.7826 55.9695 28.1C55.9695 21.4174 50.5522 16 43.8695 16C37.1869 16 31.7695 21.4174 31.7695 28.1C31.7695 34.7826 37.1869 40.2 43.8695 40.2Z" fill="#916CA4"/>
<path d="M29.3672 46.002C35.9672 49.202 44.4672 54.902 46.8672 64.702" stroke="black" stroke-miterlimit="10" stroke-linecap="round" stroke-linejoin="round"/>
<path d="M43.0679 56.702C45.0679 54.102 44.8679 49.402 41.5679 46.002C37.4679 41.702 26.568 40.202 21.668 40.002C21.668 46.802 23.468 61.702 42.168 60.402" stroke="black" stroke-miterlimit="10" stroke-linecap="round" stroke-linejoin="round"/>
<path d="M45.8672 61.8008C47.8672 56.6008 52.3672 53.7008 54.8672 51.8008" stroke="black" stroke-miterlimit="10" stroke-linecap="round" stroke-linejoin="round"/>
<path d="M47.3672 54.902C48.2672 46.802 57.0672 46.002 59.8672 46.002C59.8672 49.002 59.3672 54.702 55.8672 58.202C53.6672 60.402 49.8672 60.502 47.3672 59.002" stroke="black" stroke-miterlimit="10" stroke-linecap="round" stroke-linejoin="round"/>
<path d="M50.5687 41.5008C52.2808 41.5008 53.6688 40.1129 53.6688 38.4008C53.6688 36.6887 52.2808 35.3008 50.5687 35.3008C48.8566 35.3008 47.4688 36.6887 47.4688 38.4008C47.4688 40.1129 48.8566 41.5008 50.5687 41.5008Z" stroke="black" stroke-miterlimit="10" stroke-linecap="round" stroke-linejoin="round"/>
<path d="M48.2695 28.1016C48.2695 30.6016 46.2695 32.6016 43.7695 32.6016C41.2695 32.6016 39.2695 30.6016 39.2695 28.1016C39.2695 25.6016 41.2695 23.6016 43.7695 23.6016C46.2695 23.7016 48.2695 25.7016 48.2695 28.1016Z" stroke="black" stroke-miterlimit="10" stroke-linecap="round" stroke-linejoin="round"/>
<path d="M34.0664 40.2016C34.2664 37.9016 36.1664 36.1016 38.4664 36.1016C40.9664 36.1016 42.9664 38.1016 42.9664 40.6016C42.9664 41.8016 42.4664 43.0016 41.6664 43.8016" stroke="black" stroke-miterlimit="10" stroke-linecap="round" stroke-linejoin="round"/>
</svg>
