<svg width="32" height="32" viewBox="0 0 32 32" fill="none" xmlns="http://www.w3.org/2000/svg">
<path d="M25.429 6.57102C30.6356 11.7777 30.6356 20.2203 25.429 25.427C20.2223 30.6337 11.7796 30.6337 6.57297 25.427C1.3663 20.2203 1.3663 11.7777 6.57297 6.57102C11.7796 1.36435 20.2223 1.36435 25.429 6.57102" stroke="#470A68" stroke-width="1.5" stroke-linecap="round" stroke-linejoin="round"/>
<path d="M21.55 14.2327C21.55 13.8185 21.2142 13.4827 20.8 13.4827C20.3858 13.4827 20.05 13.8185 20.05 14.2327H21.55ZM10.6057 18.5903C10.3613 18.2558 9.89213 18.1827 9.55764 18.427C9.22314 18.6713 9.15004 19.1405 9.39435 19.475L10.6057 18.5903ZM9.87257 18.2933C9.46438 18.3637 9.19053 18.7517 9.2609 19.1599C9.33128 19.568 9.71924 19.8419 10.1274 19.7715L9.87257 18.2933ZM11.8 18.4324L12.0383 19.1436C12.2839 19.0613 12.4696 18.8581 12.5296 18.6062C12.5896 18.3542 12.5154 18.0891 12.3332 17.905L11.8 18.4324ZM11.2 11.2324L11.8606 10.8773C11.738 10.6492 11.5064 10.5005 11.248 10.484C10.9896 10.4674 10.7409 10.5853 10.5902 10.7958L11.2 11.2324ZM14.8 14.2324L14.6229 14.9612C14.8422 15.0145 15.0739 14.9662 15.2537 14.8296C15.4334 14.6931 15.5421 14.4828 15.5496 14.2572L14.8 14.2324ZM20.2 12.4324L19.5738 12.8452C19.7126 13.0557 19.9479 13.1824 20.2 13.1824V12.4324ZM22 12.4324L22.624 12.8484C22.7775 12.6183 22.7918 12.3224 22.6613 12.0785C22.5307 11.8347 22.2766 11.6824 22 11.6824V12.4324ZM20.176 13.8164C19.9462 14.161 20.0393 14.6267 20.384 14.8565C20.7286 15.0862 21.1943 14.9931 21.424 14.6484L20.176 13.8164ZM20.05 14.2327C20.05 16.1946 19.4901 17.8036 18.5126 18.9114C17.5454 20.0076 16.1093 20.6827 14.2 20.6827V22.1827C16.4907 22.1827 18.3546 21.3577 19.6374 19.9039C20.9099 18.4617 21.55 16.4707 21.55 14.2327H20.05ZM14.2 20.6827C13.1446 20.6827 12.4577 20.4117 11.9475 20.0507C11.4144 19.6735 11.0282 19.1689 10.6057 18.5903L9.39435 19.475C9.80978 20.0438 10.3236 20.7392 11.081 21.2751C11.8613 21.8273 12.8554 22.1827 14.2 22.1827V20.6827ZM10.1274 19.7715C10.1512 19.7674 10.1695 19.7631 10.1758 19.7615C10.1844 19.7595 10.1913 19.7576 10.1954 19.7565C10.2036 19.7543 10.2102 19.7524 10.2135 19.7515C10.2205 19.7494 10.2265 19.7475 10.23 19.7464C10.2376 19.7441 10.246 19.7414 10.2538 19.7389C10.27 19.7336 10.2917 19.7265 10.3174 19.7181C10.369 19.7011 10.441 19.6772 10.526 19.649C10.6963 19.5924 10.9211 19.5173 11.145 19.4425C11.3689 19.3677 11.5923 19.2929 11.7596 19.2369C11.8432 19.2089 11.9129 19.1856 11.9617 19.1692C11.986 19.1611 12.0052 19.1547 12.0182 19.1503C12.0248 19.1481 12.0298 19.1464 12.0332 19.1453C12.0348 19.1447 12.0361 19.1443 12.037 19.144C12.0374 19.1439 12.0377 19.1437 12.038 19.1437C12.0381 19.1436 12.0382 19.1436 12.0382 19.1436C12.0382 19.1436 12.0383 19.1436 12.0383 19.1436C12.0383 19.1436 12.0383 19.1436 11.8 18.4324C11.5617 17.7213 11.5617 17.7213 11.5617 17.7213C11.5617 17.7213 11.5617 17.7213 11.5616 17.7213C11.5616 17.7213 11.5615 17.7214 11.5614 17.7214C11.5612 17.7215 11.5609 17.7216 11.5604 17.7217C11.5596 17.722 11.5583 17.7224 11.5566 17.723C11.5533 17.7241 11.5483 17.7258 11.5417 17.728C11.5287 17.7323 11.5096 17.7387 11.4852 17.7469C11.4365 17.7632 11.3669 17.7865 11.2834 17.8145C11.1162 17.8705 10.8931 17.9451 10.6695 18.0198C10.4458 18.0946 10.2219 18.1694 10.0528 18.2256C9.96813 18.2537 9.89786 18.277 9.84842 18.2933C9.82352 18.3015 9.80502 18.3075 9.79299 18.3114C9.79007 18.3123 9.7878 18.3131 9.78609 18.3136C9.7843 18.3142 9.7836 18.3144 9.78371 18.3144C9.7838 18.3143 9.78439 18.3142 9.78537 18.3139C9.78624 18.3136 9.78821 18.313 9.79088 18.3122C9.793 18.3116 9.79867 18.3099 9.80615 18.3079C9.8099 18.3069 9.81651 18.3052 9.82484 18.3032C9.83086 18.3017 9.849 18.2974 9.87257 18.2933L10.1274 19.7715ZM12.3332 17.905C10.5914 16.1441 10.4622 13.5513 11.8098 11.669L10.5902 10.7958C8.82583 13.2602 9.00059 16.6688 11.2668 18.9598L12.3332 17.905ZM10.5394 11.5876C11.3505 13.0962 12.8812 14.5379 14.6229 14.9612L14.9771 13.5036C13.7508 13.2056 12.5255 12.114 11.8606 10.8773L10.5394 11.5876ZM15.5496 14.2572C15.5728 13.5546 15.8195 12.9904 16.1948 12.607C16.566 12.2276 17.1039 11.9824 17.8 11.9824V10.4824C16.7288 10.4824 15.7953 10.8705 15.1227 11.5579C14.4541 12.2411 14.0845 13.177 14.0504 14.2076L15.5496 14.2572ZM17.8 11.9824C18.3048 11.9824 18.6561 12.078 18.9149 12.2161C19.172 12.3533 19.3839 12.5571 19.5738 12.8452L20.8262 12.0197C20.5274 11.5664 20.141 11.1702 19.6211 10.8928C19.1029 10.6162 18.4985 10.4824 17.8 10.4824V11.9824ZM20.2 13.1824H22V11.6824H20.2V13.1824ZM21.376 12.0164L20.176 13.8164L21.424 14.6484L22.624 12.8484L21.376 12.0164Z" fill="#470A68"/>
</svg>
