<svg width="81" height="80" viewBox="0 0 81 80" fill="none" xmlns="http://www.w3.org/2000/svg">
<path d="M42.0219 42.2C50.3614 42.2 57.1219 35.4395 57.1219 27.1C57.1219 18.7605 50.3614 12 42.0219 12C33.6824 12 26.9219 18.7605 26.9219 27.1C26.9219 35.4395 33.6824 42.2 42.0219 42.2Z" fill="#916CA4"/>
<path d="M37.4203 33.6992C37.3203 33.5992 37.3203 33.4992 37.3203 33.3992V21.0992C37.3203 20.9992 37.3203 20.8992 37.4203 20.7992C37.5203 20.6992 37.6203 20.6992 37.7203 20.6992H42.3203C43.7203 20.6992 44.8203 20.9992 45.6203 21.6992C46.4203 22.3992 46.8203 23.2992 46.8203 24.5992C46.8203 25.4992 46.6203 26.2992 46.1203 26.8992C45.6203 27.4992 45.0203 27.8992 44.1203 28.1992L47.0203 33.1992C47.0203 33.2992 47.1203 33.2992 47.1203 33.3992C47.1203 33.4992 47.1203 33.5992 47.0203 33.6992C46.9203 33.7992 46.8203 33.7992 46.7203 33.7992H45.9203C45.7203 33.7992 45.6203 33.7992 45.5203 33.6992C45.4203 33.5992 45.3203 33.4992 45.2203 33.2992L42.4203 28.4992H39.1203V33.3992C39.1203 33.4992 39.1203 33.5992 39.0203 33.6992C38.9203 33.7992 38.8203 33.7992 38.7203 33.7992H37.8203C37.6203 33.7992 37.5203 33.6992 37.4203 33.6992ZM42.2203 26.8992C44.1203 26.8992 45.0203 26.0992 45.0203 24.4992C45.0203 22.8992 44.1203 22.0992 42.2203 22.0992H39.1203V26.8992H42.2203Z" fill="black"/>
<path d="M30.5195 32.4016C29.9195 30.9016 29.5195 29.3016 29.5195 27.6016C29.5195 21.0016 34.9195 15.6016 41.6195 15.6016C48.3195 15.6016 53.6195 21.0016 53.6195 27.7016C53.6195 34.4016 48.2195 39.8016 41.5195 39.8016" stroke="black" stroke-miterlimit="10" stroke-linecap="round" stroke-linejoin="round"/>
<path d="M36.9219 44.9023H39.2219C39.9219 44.9023 41.1219 45.4023 41.5219 46.1023H43.9219C45.0219 46.1023 46.2219 47.1023 46.2219 48.4023H48.5219C49.6219 48.4023 50.8219 49.4023 50.8219 50.7023V62.4023C50.8219 64.8023 48.5219 66.7023 48.5219 68.2023" stroke="black" stroke-miterlimit="10" stroke-linecap="round" stroke-linejoin="round"/>
<path d="M41.6211 46.1016V51.9016" stroke="black" stroke-miterlimit="10" stroke-linecap="round" stroke-linejoin="round"/>
<path d="M46.2227 48.4023V53.1023" stroke="black" stroke-miterlimit="10" stroke-linecap="round" stroke-linejoin="round"/>
<path d="M36.9209 51.9016V37.9016C36.9209 36.6016 35.9209 35.6016 34.6209 35.6016C33.3209 35.6016 32.3209 36.6016 32.3209 37.9016C32.3209 37.9016 32.3209 51.9016 32.3209 55.7016C32.3209 56.0016 31.9209 56.2016 31.7209 55.9016C30.9209 55.0016 29.0209 52.8016 27.6209 51.9016C26.7209 51.3016 25.5209 51.2016 24.6209 51.7016C23.2209 52.4016 22.9209 54.2016 23.9209 55.3016C26.9209 58.6016 28.0209 63.1016 31.0209 65.9016C32.2209 67.1016 32.2209 67.6016 32.2209 68.2016" stroke="black" stroke-miterlimit="10" stroke-linecap="round" stroke-linejoin="round"/>
</svg>
