<svg width="81" height="80" viewBox="0 0 81 80" fill="none" xmlns="http://www.w3.org/2000/svg">
<path d="M46.132 50.6C55.4104 50.6 62.932 43.0784 62.932 33.8C62.932 24.5216 55.4104 17 46.132 17C36.8536 17 29.332 24.5216 29.332 33.8C29.332 43.0784 36.8536 50.6 46.132 50.6Z" fill="#916CA4"/>
<path d="M54.132 44.5984C54.132 54.3984 46.132 62.2984 36.232 62.2984C26.332 62.2984 18.332 54.3984 18.332 44.5984C18.332 34.7984 26.332 26.8984 36.232 26.8984" stroke="black" stroke-miterlimit="10" stroke-linecap="round" stroke-linejoin="round"/>
<path d="M46.1336 49.8984C44.8336 57.0984 40.9336 62.2984 36.2336 62.2984C30.5336 62.2984 25.9336 54.3984 25.9336 44.5984C25.9336 34.7984 30.5336 26.8984 36.2336 26.8984" stroke="black" stroke-miterlimit="10" stroke-linecap="round" stroke-linejoin="round"/>
<path d="M36.2305 38.8984V62.2984C46.1305 62.2984 54.1305 54.3984 54.1305 44.5984C54.1305 43.5984 54.0305 42.5984 53.9305 41.6984" stroke="black" stroke-miterlimit="10" stroke-linecap="round" stroke-linejoin="round"/>
<path d="M36.132 38.3984H19.532C18.832 40.2984 18.332 42.3984 18.332 44.5984C18.332 46.7984 18.732 48.8984 19.532 50.7984H52.932C53.632 48.8984 54.132 46.7984 54.132 44.5984" stroke="black" stroke-miterlimit="10" stroke-linecap="round" stroke-linejoin="round"/>
<path d="M45.9336 22.3984C39.5336 22.3984 34.4336 27.4984 34.4336 33.7984C34.4336 40.0984 45.9336 49.7984 45.9336 49.7984C45.9336 49.7984 57.4336 40.0984 57.4336 33.7984C57.4336 27.4984 52.3336 22.3984 45.9336 22.3984ZM45.9336 39.4984C42.7336 39.4984 40.2336 36.9984 40.2336 33.7984C40.2336 30.6984 42.8336 28.1984 45.9336 28.1984C49.1336 28.1984 51.6336 30.6984 51.6336 33.7984C51.6336 36.8984 49.1336 39.4984 45.9336 39.4984Z" stroke="black" stroke-miterlimit="10" stroke-linecap="round" stroke-linejoin="round"/>
<path d="M45.9344 39.4992C42.7344 39.4992 40.2344 36.9992 40.2344 33.7992C40.2344 30.6992 42.8344 28.1992 45.9344 28.1992C49.1344 28.1992 51.6344 30.6992 51.6344 33.7992C51.6344 36.8992 49.1344 39.4992 45.9344 39.4992Z" stroke="black" stroke-miterlimit="10" stroke-linecap="round" stroke-linejoin="round"/>
</svg>
