<svg width="16" height="16" viewBox="0 0 16 16" fill="none" xmlns="http://www.w3.org/2000/svg">
<path fill-rule="evenodd" clip-rule="evenodd" d="M8 14V14C4.686 14 2 11.314 2 8V8C2 4.686 4.686 2 8 2V2C11.314 2 14 4.686 14 8V8C14 11.314 11.314 14 8 14Z" stroke="#333333" stroke-linecap="round" stroke-linejoin="round"/>
<path d="M7.99967 11.3333V8H7.33301" stroke="#333333" stroke-linecap="round" stroke-linejoin="round"/>
<path d="M7.83267 5.33335C7.74067 5.33335 7.666 5.40802 7.66667 5.50002C7.66667 5.59202 7.74134 5.66669 7.83334 5.66669C7.92534 5.66669 8 5.59202 8 5.50002C8 5.40802 7.92534 5.33335 7.83267 5.33335" stroke="#333333" stroke-linecap="round" stroke-linejoin="round"/>
</svg>
