<svg width="136" height="391" viewBox="0 0 136 391" fill="none" xmlns="http://www.w3.org/2000/svg">
<path d="M-131.865 38.1892L-70.3532 2.67514C-69.4811 2.17168 -68.2907 2.26179 -67.0232 2.93563C-65.7656 3.60424 -64.5177 4.81057 -63.6258 6.35524L131.307 343.988C132.305 345.718 132.778 347.498 132.776 349.016C132.775 350.524 132.31 351.714 131.507 352.394L70.0326 387.887C69.1634 388.388 67.9756 388.301 66.6844 387.585C65.4018 386.874 64.0978 385.579 63.0979 383.847L-131.834 46.2145C-132.834 44.4827 -133.304 42.7057 -133.278 41.2394C-133.253 39.7634 -132.735 38.691 -131.865 38.1892Z" stroke="#DDDDDD"/>
</svg>
