<svg width="414" height="81" viewBox="0 0 414 81" fill="none" xmlns="http://www.w3.org/2000/svg">
<g opacity="0.2" clip-path="url(#clip0)">
<path d="M41.9081 134.743H2.48959C1.36142 134.743 0.5 133.846 0.5 132.905V3.57696C0.5 2.49494 1.36938 1.58799 2.51554 1.46289H41.9081C43.0175 1.46289 43.8977 2.34218 43.8977 3.43938V132.767C43.8977 133.864 43.0175 134.743 41.9081 134.743Z" stroke="#DDDDDD"/>
<path d="M314.019 68.1034C314.019 105.385 283.54 135.707 246.055 135.707C208.57 135.707 178.091 105.385 178.091 68.1034C178.091 30.822 208.57 0.5 246.055 0.5C283.678 0.5 314.019 30.8213 314.019 68.1034Z" stroke="#DDDDDD"/>
<path d="M414.242 54.0622L413.944 54.4958L414.392 54.7712C426.586 62.2672 434.638 74.1017 435.594 87.8126C437.229 112.362 414.982 133.931 385.579 135.708L385.578 135.708C361.686 137.21 340.926 126.146 326.88 113.818L326.88 113.818L326.875 113.813C326.104 113.156 326.002 112.073 326.542 111.321L326.542 111.321L326.548 111.312L347.433 80.7682L347.741 80.3186L347.266 80.0507C335.228 73.2467 327.314 61.008 326.496 48.6713L326.496 48.6684C324.724 24.1208 346.968 2.55127 376.372 0.774415L376.374 0.774333C386.151 0.157921 395.145 0.775615 404.474 3.76116C413.805 6.74694 423.501 12.1103 434.667 21.0229C435.455 21.6994 435.662 22.7957 435.121 23.6654L414.242 54.0622Z" stroke="#DDDDDD"/>
<path d="M104.01 92.7809H103.51V93.2809V132.905C103.51 134.002 102.63 134.881 101.52 134.881H62.1017C60.9922 134.881 60.1121 134.002 60.1121 132.905V93.4185V3.57707C60.1121 2.47987 60.9922 1.60059 62.1017 1.60059H104.01H118.809C144 1.60059 165.063 21.346 165.473 46.3733C165.883 71.9572 145.226 92.7809 119.639 92.7809H104.01Z" stroke="#DDDDDD"/>
</g>
<defs>
<clipPath id="clip0">
<rect width="414" height="80.2125" fill="white"/>
</clipPath>
</defs>
</svg>
