<svg width="173" height="363" viewBox="0 0 173 363" fill="none" xmlns="http://www.w3.org/2000/svg">
<path d="M263.266 3.25724L317.832 48.7281C318.605 49.3727 318.931 50.5211 318.737 51.9432C318.543 53.3543 317.842 54.942 316.7 56.3123L67.1158 355.816C65.8369 357.35 64.3294 358.408 62.9041 358.931C61.4885 359.45 60.2114 359.424 59.2958 358.906L4.76351 313.463C3.99242 312.82 3.66445 311.675 3.8904 310.216C4.11485 308.767 4.8804 307.096 6.16057 305.56L255.745 6.05656C257.025 4.52033 258.531 3.466 259.916 2.98387C261.31 2.49854 262.495 2.61467 263.266 3.25724Z" stroke="#DDDDDD"/>
</svg>
