<svg width="151" height="346" viewBox="0 0 151 346" fill="none" xmlns="http://www.w3.org/2000/svg">
<path d="M146.596 292.351L95.9187 342.118C95.2003 342.824 94.0251 343.034 92.6294 342.698C91.2446 342.366 89.7346 341.51 88.4849 340.237L-184.682 62.0748C-186.082 60.6495 -186.985 59.0442 -187.363 57.5739C-187.738 56.1137 -187.586 54.8455 -186.979 53.9861L-136.332 4.24894C-135.616 3.54565 -134.444 3.3333 -133.015 3.70336C-131.595 4.07098 -130.009 4.99908 -128.608 6.42584L144.559 284.588C145.961 286.015 146.86 287.618 147.202 289.044C147.546 290.48 147.312 291.647 146.596 292.351Z" stroke="#DDDDDD"/>
</svg>
