<svg width="118" height="118" viewBox="0 0 118 118" fill="none" xmlns="http://www.w3.org/2000/svg">
<rect width="118" height="118" fill="white"/>
<path d="M46.0393 113.415C69.2569 113.415 88.0785 94.5937 88.0785 71.376C88.0785 48.1584 69.2569 29.3368 46.0393 29.3368C22.8216 29.3368 4 48.1584 4 71.376C4 94.5937 22.8216 113.415 46.0393 113.415Z" fill="#916CA4"/>
<path d="M94.7199 67.1776C94.7199 92.4498 74.4078 112.964 49.3599 112.964C24.3121 112.964 4 92.4498 4 67.1776C4 41.9053 24.3121 21.3912 49.3599 21.3912C74.4078 21.3912 94.7199 41.8828 94.7199 67.1776Z" stroke="black" stroke-width="1.5" stroke-miterlimit="10"/>
<path d="M75.5749 67.1776C75.5749 92.4498 63.8365 112.964 49.3375 112.964C34.8385 112.964 23.1001 92.4723 23.1001 67.1776C23.1001 41.8828 34.8609 21.3912 49.3599 21.3912C63.859 21.3912 75.5973 41.8828 75.5973 67.1776H75.5749Z" stroke="black" stroke-width="1.5" stroke-miterlimit="10"/>
<path d="M49.36 112.942C74.4078 112.942 94.7199 92.4499 94.7199 67.1551C94.7199 41.8604 74.4078 21.3912 49.36 21.3912V112.942Z" stroke="black" stroke-width="1.5" stroke-miterlimit="10"/>
<path d="M4 67.1777C4 72.8785 5.07733 78.2876 6.9402 83.3151H91.7572C93.6426 78.2876 94.7199 72.8785 94.7199 67.1777C94.7199 61.4768 93.6426 56.0677 91.7572 51.0402H6.9402C5.05488 56.0677 4 61.4993 4 67.1777Z" stroke="black" stroke-width="1.5" stroke-miterlimit="10"/>
<path d="M83.9703 62.3913C93.4716 62.3913 101.174 54.6492 101.174 45.0987C101.174 35.5483 93.4716 27.8062 83.9703 27.8062C74.469 27.8062 66.7667 35.5483 66.7667 45.0987C66.7667 54.6492 74.469 62.3913 83.9703 62.3913Z" fill="white"/>
<path fill-rule="evenodd" clip-rule="evenodd" d="M54.397 46.4629C53.7931 45.4381 53.7931 44.1411 54.397 43.1162C60.7528 32.2863 72.3633 22.9484 83.9739 22.9484C95.5844 22.9484 107.192 32.2863 113.547 43.1128C114.151 44.1411 114.151 45.4415 113.547 46.4697C107.192 57.2928 95.5844 66.6308 83.9739 66.6308C72.3633 66.6308 60.7528 57.2928 54.397 46.4629Z" fill="white" stroke="black" stroke-width="1.5" stroke-linecap="round" stroke-linejoin="round"/>
<path fill-rule="evenodd" clip-rule="evenodd" d="M94.0483 34.8974C99.6291 40.5181 99.6291 49.6252 94.0483 55.2458C88.4675 60.8665 79.4249 60.8665 73.8442 55.2458C68.2634 49.6252 68.2634 40.5181 73.8442 34.8974C79.4249 29.2768 88.4723 29.2768 94.0483 34.8974Z" fill="white"/>
<path d="M94.0483 34.8974C99.6291 40.5181 99.6291 49.6252 94.0483 55.2458C88.4675 60.8665 79.4249 60.8665 73.8442 55.2458C68.2634 49.6252 68.2634 40.5181 73.8442 34.8974C79.4249 29.2768 88.4723 29.2768 94.0483 34.8974" stroke="black" stroke-width="1.5" stroke-linecap="round" stroke-linejoin="round"/>
<line y1="-0.75" x2="28.6775" y2="-0.75" transform="matrix(0.704587 -0.709618 0.704587 0.709618 75.0154 55.864)" stroke="black" stroke-width="1.5"/>
<path d="M71.3279 51.251L90.3733 32.0696" stroke="black" stroke-width="1.5"/>
<path d="M69.4525 45.5804L76.7857 38.1949L84.1188 30.8094" stroke="black" stroke-width="1.5"/>
<path d="M85.8491 59.4258L92.5567 52.6703L98.0131 47.1749" stroke="black" stroke-width="1.5"/>
<path d="M79.1844 58.9844L97.6951 40.3416" stroke="black" stroke-width="1.5"/>
<path fill-rule="evenodd" clip-rule="evenodd" d="M83.9732 5.5V14.2505V5.5Z" fill="white"/>
<path d="M83.9732 5.5V14.2505" stroke="black" stroke-width="1.5" stroke-linecap="round" stroke-linejoin="round"/>
<path fill-rule="evenodd" clip-rule="evenodd" d="M59.6455 12.5005L65.4841 19.5009L59.6455 12.5005Z" fill="white"/>
<path d="M59.6455 12.5005L65.4841 19.5009" stroke="black" stroke-width="1.5" stroke-linecap="round" stroke-linejoin="round"/>
<path fill-rule="evenodd" clip-rule="evenodd" d="M108.301 12.5005L102.462 19.5009L108.301 12.5005Z" fill="white"/>
<path d="M108.301 12.5005L102.462 19.5009" stroke="black" stroke-width="1.5" stroke-linecap="round" stroke-linejoin="round"/>
</svg>
