<svg width="84" height="101" viewBox="0 0 84 101" fill="none" xmlns="http://www.w3.org/2000/svg">
<path d="M42.5 84C65.4198 84 84 65.196 84 42C84 18.804 65.4198 0 42.5 0C19.5802 0 1 18.804 1 42C1 65.196 19.5802 84 42.5 84Z" fill="#916CA4"/>
<path fill-rule="evenodd" clip-rule="evenodd" d="M13.6283 99.9999H5.20944C2.88463 99.9999 1 98.1153 1 95.7905V70.5339C1 68.2091 2.88463 66.3245 5.20944 66.3245H13.6283C15.9531 66.3245 17.8377 68.2091 17.8377 70.5339V95.7905C17.8377 98.1153 15.9531 99.9999 13.6283 99.9999Z" stroke="black" stroke-width="1.5" stroke-linecap="round" stroke-linejoin="round"/>
<path fill-rule="evenodd" clip-rule="evenodd" d="M73.9363 26.9594H14.0836C12.0187 26.9594 10.3428 28.6352 10.3428 30.7001V38.1817C10.3428 40.2467 12.0187 41.9225 14.0836 41.9225H73.9363C76.0012 41.9225 77.6771 40.2467 77.6771 38.1817V30.7001C77.6771 28.6352 76.0012 26.9594 73.9363 26.9594Z" stroke="black" stroke-width="1.5" stroke-linecap="round" stroke-linejoin="round"/>
<path d="M44.0109 67.1729V26.9594" stroke="black" stroke-width="1.5" stroke-linecap="round" stroke-linejoin="round"/>
<path d="M57.8375 21.767C53.8049 25.9641 47.4568 26.9592 44.3818 26.9592" stroke="black" stroke-width="1.5" stroke-linecap="round" stroke-linejoin="round"/>
<path d="M44.3819 26.9589C44.3819 26.9589 42.5339 15.3026 47.079 10.5742" stroke="black" stroke-width="1.5" stroke-linecap="round" stroke-linejoin="round"/>
<path d="M57.8358 21.7668C60.806 18.6769 60.806 13.6642 57.8358 10.5743C54.8656 7.48442 50.0512 7.48442 47.081 10.5743" stroke="black" stroke-width="1.5" stroke-linecap="round" stroke-linejoin="round"/>
<path d="M30.1836 21.767C34.2162 25.9641 40.5643 26.9592 43.6392 26.9592" stroke="black" stroke-width="1.5" stroke-linecap="round" stroke-linejoin="round"/>
<path d="M43.6402 26.9589C43.6402 26.9589 45.4881 15.3026 40.9431 10.5742" stroke="black" stroke-width="1.5" stroke-linecap="round" stroke-linejoin="round"/>
<path d="M30.1828 21.7668C27.2127 18.6769 27.2127 13.6642 30.1828 10.5743C33.153 7.48442 37.9674 7.48442 40.9376 10.5743" stroke="black" stroke-width="1.5" stroke-linecap="round" stroke-linejoin="round"/>
<path d="M70.1959 41.9225V72.6905M17.8247 71.8489V41.9225" stroke="black" stroke-width="1.5" stroke-linecap="round" stroke-linejoin="round"/>
<path d="M43.0945 83.1621H52.9151C54.7367 83.1621 56.5092 82.5713 57.9664 81.4784L68.1364 73.8509C70.6754 71.9476 74.2274 72.2006 76.4711 74.4444V74.4444C77.6674 75.6397 78.3396 77.2615 78.3396 78.9527C78.3396 80.6438 77.6674 82.2657 76.4711 83.461L67.745 92.1872C65.3944 94.5379 62.4006 96.1403 59.1409 96.7923L46.8072 99.259C44.362 99.7478 41.8387 99.6875 39.4197 99.0822L28.2647 96.2956C26.9311 95.9594 25.561 95.7898 24.1857 95.7904H17.8379" stroke="black" stroke-width="1.5" stroke-linecap="round" stroke-linejoin="round"/>
<path d="M43.0945 83.1621H49.3455C52.8676 83.1621 55.7228 80.3069 55.7228 76.7848V75.522C55.7228 72.597 53.7323 70.0473 50.8946 69.3383L41.2466 66.9263C39.6789 66.5307 38.0688 66.3285 36.452 66.3243V66.3243C32.5489 66.3231 28.7329 67.4789 25.4864 69.6456L17.8379 74.7432" stroke="black" stroke-width="1.5" stroke-linecap="round" stroke-linejoin="round"/>
</svg>
