<svg width="119" height="118" viewBox="0 0 119 118" fill="none" xmlns="http://www.w3.org/2000/svg">
<path d="M60.4308 69.1224C74.2718 69.1224 85.492 57.9021 85.492 44.0612C85.492 30.2203 74.2718 19 60.4308 19C46.5899 19 35.3696 30.2203 35.3696 44.0612C35.3696 57.9021 46.5899 69.1224 60.4308 69.1224Z" fill="#916CA4"/>
<path d="M71.1136 32.4376C77.5738 38.8978 77.5738 49.3719 71.1136 55.8322C64.6534 62.2924 54.1792 62.2924 47.7189 55.8322C41.2587 49.372 41.2587 38.8979 47.7189 32.4376C54.1792 25.9774 64.6533 25.9774 71.1136 32.4376" stroke="black" stroke-width="1.5" stroke-linecap="round" stroke-linejoin="round"/>
<rect x="10.7601" y="49.0477" width="19.981" height="19.981" rx="1.25" stroke="black" stroke-width="1.5"/>
<path d="M86.3353 69.7448C85.3761 69.7448 84.7743 68.709 85.2493 67.8757L96.9965 47.2683C97.4761 46.427 98.6888 46.427 99.1684 47.2683L110.916 67.8757C111.391 68.709 110.789 69.7448 109.83 69.7448L98.0825 69.7448L86.3353 69.7448Z" stroke="black" stroke-width="1.5"/>
<path d="M117.833 99.0765V93.2561C117.833 85.9222 111.89 79.9796 104.556 79.9796H100.303" stroke="black" stroke-width="1.5" stroke-linecap="round" stroke-linejoin="round"/>
<path d="M1 99.0765V93.2561C1 85.9222 6.94255 79.9796 14.2765 79.9796H18.5303" stroke="black" stroke-width="1.5" stroke-linecap="round" stroke-linejoin="round"/>
<path d="M87.7698 99.0766V90.5743C87.7698 80.3089 79.4481 71.9872 69.1827 71.9872H49.645C39.3797 71.9872 31.058 80.3089 31.058 90.5743V99.0766" stroke="black" stroke-width="1.5" stroke-linecap="round" stroke-linejoin="round"/>
<path d="M63.1166 88.3956L62.4905 72.6429" stroke="black" stroke-width="1.5" stroke-linecap="round" stroke-linejoin="round"/>
<path d="M55.176 72.6429L54.4044 86.2475" stroke="black" stroke-width="1.5" stroke-linecap="round" stroke-linejoin="round"/>
<path d="M47.2349 72.6429L58.8472 95.7537L72.5942 72.6429" stroke="black" stroke-width="1.5" stroke-linecap="round" stroke-linejoin="round"/>
</svg>
