<svg width="118" height="118" viewBox="0 0 118 118" fill="none" xmlns="http://www.w3.org/2000/svg">
<path d="M75.2582 61.4841C91.132 61.4841 104 48.6159 104 32.7421C104 16.8683 91.132 4 75.2582 4C59.3844 4 46.5161 16.8683 46.5161 32.7421C46.5161 48.6159 59.3844 61.4841 75.2582 61.4841Z" fill="#916CA4"/>
<path d="M31.8583 55.592C38.1068 55.592 42.5887 51.2083 42.5887 44.8617V39.4965C42.5887 33.1499 38.1068 28.7661 31.8583 28.7661C25.6098 28.7661 21.1279 33.1499 21.1279 39.4965V44.8617C21.1279 51.2083 25.6098 55.592 31.8583 55.592Z" stroke="black" stroke-width="1.5" stroke-linecap="round" stroke-linejoin="round"/>
<path d="M15.7302 82.4178V114.216" stroke="black" stroke-width="1.5" stroke-linecap="round" stroke-linejoin="round"/>
<path d="M47.496 82.4178V114.642" stroke="black" stroke-width="1.5" stroke-linecap="round" stroke-linejoin="round"/>
<path d="M47.5676 99.0697L71.9478 99.0697C74.6579 99.0697 76.8549 96.8727 76.8549 94.1625V94.1625C76.8549 91.4524 74.6579 89.2553 71.9478 89.2553L58.9788 89.2553" stroke="black" stroke-width="1.5"/>
<path d="M58.6846 89.3207V77.0854C58.6846 68.2198 41.1496 63.6725 31.8259 63.6725C22.5023 63.6725 5 68.1871 5 77.0527V114.184" stroke="black" stroke-width="1.5" stroke-linecap="round" stroke-linejoin="round"/>
<path d="M28.6852 63.8033L26.7877 94.8494L31.8585 101.491L36.1768 95.1439L34.9991 63.8033" stroke="black" stroke-width="1.5" stroke-linecap="round" stroke-linejoin="round"/>
<path d="M67.5651 79.9203L67.5651 37.1967H55.4174L76.5647 16.0494L97.712 37.1967H85.5643L85.5643 79.9203" stroke="black" stroke-width="1.5" stroke-linecap="round" stroke-linejoin="round"/>
</svg>
