<svg width="92" height="111" viewBox="0 0 92 111" fill="none" xmlns="http://www.w3.org/2000/svg">
<path d="M58.6501 111C76.649 111 91.2399 96.4091 91.2399 78.4102C91.2399 60.4113 76.649 45.8204 58.6501 45.8204C40.6513 45.8204 26.0603 60.4113 26.0603 78.4102C26.0603 96.4091 40.6513 111 58.6501 111Z" fill="#916CA4"/>
<path d="M39 96.73H47.7612C48.4289 96.73 48.9753 96.1837 48.9753 95.516V74.1493C48.9753 73.4816 48.4289 72.9353 47.7612 72.9353H39V96.73Z" stroke="black" stroke-width="1.5" stroke-linecap="round" stroke-linejoin="round"/>
<path d="M48.9958 94.9898C48.9958 94.9898 58.5056 96.6895 69.4722 96.6895C71.0099 96.6895 72.4466 95.8599 72.4466 94.0793C72.4466 92.6023 71.2326 91.449 69.5734 91.449H70.8076C72.3454 91.449 73.6808 90.2957 73.7819 88.7579C73.8831 87.0785 72.5679 85.7026 70.9088 85.7026H72.143C73.6808 85.7026 75.0162 84.5493 75.1174 83.0116C75.2186 81.3322 73.9034 79.9563 72.2443 79.9563H73.4785C75.0162 79.9563 76.3516 78.803 76.4528 77.2652C76.5539 75.5859 75.2388 74.21 73.5796 74.21H63.0987C62.2286 74.21 61.5609 73.4006 61.743 72.5508C62.5322 68.929 61.8441 65.8333 60.6503 63.3243C59.578 61.1188 56.2597 61.827 56.2192 64.2753C56.0573 72.6115 49.016 74.7967 49.016 74.7967" stroke="black" stroke-width="1.5" stroke-linecap="round" stroke-linejoin="round"/>
<path d="M45.6976 92.8047C45.6976 91.8739 44.949 91.105 43.998 91.105C43.047 91.105 42.2983 91.8537 42.2983 92.8047C42.2983 93.7556 43.047 94.5043 43.998 94.5043C44.949 94.5043 45.6976 93.7556 45.6976 92.8047Z" stroke="black" stroke-width="1.5" stroke-linecap="round" stroke-linejoin="round"/>
<path d="M43.9982 94.4839V96.7298" stroke="black" stroke-width="1.5" stroke-linecap="round" stroke-linejoin="round"/>
<path d="M69.5533 91.4489H67.3478" stroke="black" stroke-width="1.5" stroke-linecap="round" stroke-linejoin="round"/>
<path d="M71.0302 85.7228H67.7726" stroke="black" stroke-width="1.5" stroke-linecap="round" stroke-linejoin="round"/>
<path d="M72.1025 79.9766H68.1569" stroke="black" stroke-width="1.5" stroke-linecap="round" stroke-linejoin="round"/>
<path d="M70.4502 69.6137V20.4603" stroke="black" stroke-width="1.5" stroke-linecap="round" stroke-linejoin="round"/>
<path d="M51.1022 1H1V20.0295V45.1461V96.4282H32.8032" stroke="black" stroke-width="1.5" stroke-linecap="round" stroke-linejoin="round"/>
<path d="M52.1324 1V19.4301H70.4689L52.1324 1Z" stroke="black" stroke-width="1.5" stroke-linecap="round" stroke-linejoin="round"/>
<path d="M10.2899 21.5652H30.2371" stroke="black" stroke-width="1.5" stroke-linecap="round" stroke-linejoin="round"/>
<path d="M9.91541 30.2747H57.3018" stroke="black" stroke-width="1.5" stroke-linecap="round" stroke-linejoin="round"/>
<path d="M9.91541 38.9841H57.3018" stroke="black" stroke-width="1.5" stroke-linecap="round" stroke-linejoin="round"/>
<path d="M9.91541 47.6933H30.2372" stroke="black" stroke-width="1.5" stroke-linecap="round" stroke-linejoin="round"/>
<path d="M9.91541 56.4027H21.7714" stroke="black" stroke-width="1.5" stroke-linecap="round" stroke-linejoin="round"/>
</svg>
