<svg width="414" height="129" viewBox="0 0 414 129" fill="none" xmlns="http://www.w3.org/2000/svg">
<g opacity="0.2">
<path d="M39.7788 127.442H2.37274C1.31366 127.442 0.510254 126.602 0.510254 125.729V3.39269C0.510254 2.38622 1.32187 1.53768 2.39867 1.41992H39.7788C40.8191 1.41992 41.6413 2.2412 41.6413 3.26254V125.599C41.6413 126.621 40.8191 127.442 39.7788 127.442Z" stroke="white"/>
<path d="M297.972 64.4318C297.972 99.6814 269.062 128.354 233.503 128.354C197.944 128.354 169.035 99.6814 169.035 64.4318C169.035 29.1822 197.944 0.509766 233.503 0.509766C269.193 0.509766 297.972 29.1815 297.972 64.4318Z" stroke="white"/>
<path d="M393.084 51.1339L392.784 51.5683L393.234 51.844C404.8 58.9312 412.435 70.1188 413.34 83.0779C414.891 106.28 393.796 126.675 365.903 128.355L365.902 128.355C343.238 129.776 323.544 119.314 310.219 107.655L310.219 107.655L310.213 107.65C309.493 107.037 309.398 106.029 309.902 105.33L309.902 105.33L309.908 105.32L329.727 76.4281L330.036 75.9777L329.56 75.7097C318.143 69.2772 310.639 57.7077 309.863 46.0485L309.863 46.0455C308.183 22.8455 329.274 2.44984 357.169 0.769542L357.171 0.76946C366.447 0.186496 374.978 0.770738 383.828 3.59373C392.679 6.41697 401.877 11.4886 412.471 19.918C413.21 20.55 413.401 21.5712 412.896 22.3807L393.084 51.1339Z" stroke="white"/>
<path d="M98.7101 87.7473H98.2101V88.2473V125.729C98.2101 126.751 97.388 127.572 96.3476 127.572H58.9416C57.9013 127.572 57.0791 126.751 57.0791 125.729V88.3774V3.39242C57.0791 2.37109 57.9013 1.5498 58.9416 1.5498H98.7101H112.754C136.647 1.5498 156.621 20.2183 157.01 43.8757C157.399 68.0599 137.81 87.7473 113.541 87.7473H98.7101Z" stroke="white"/>
</g>
</svg>
