<svg width="32" height="32" viewBox="0 0 32 32" fill="none" xmlns="http://www.w3.org/2000/svg">
<path d="M25.429 6.57102C30.6356 11.7777 30.6356 20.2203 25.429 25.427C20.2223 30.6337 11.7796 30.6337 6.57297 25.427C1.3663 20.2203 1.3663 11.7777 6.57297 6.57102C11.7796 1.36435 20.2223 1.36435 25.429 6.57102" stroke="#470A68" stroke-width="1.5" stroke-linecap="round" stroke-linejoin="round"/>
<path fill-rule="evenodd" clip-rule="evenodd" d="M18.2491 16.4793L21.2531 14.4427C21.7204 14.1267 21.9998 13.5993 21.9998 13.0353V13.0353C21.9998 12.0953 21.2384 11.334 20.2991 11.334H11.7104C10.7711 11.334 10.0098 12.0953 10.0098 13.0347V13.0347C10.0098 13.5987 10.2891 14.126 10.7564 14.4427L13.7604 16.4793C15.1158 17.398 16.8938 17.398 18.2491 16.4793V16.4793Z" stroke="#470A68" stroke-width="1.5" stroke-linecap="round" stroke-linejoin="round"/>
<path d="M10 13.0352V19.3345C10 20.4392 10.8953 21.3345 12 21.3345H20C21.1047 21.3345 22 20.4392 22 19.3345V13.0358" stroke="#470A68" stroke-width="1.5" stroke-linecap="round" stroke-linejoin="round"/>
</svg>
