<svg width="151" height="144" viewBox="0 0 151 144" fill="none" xmlns="http://www.w3.org/2000/svg">
<g filter="url(#filter0_b)">
<ellipse cx="75" cy="72" rx="55" ry="55" fill="white" fill-opacity="0.12"/>
</g>
<g opacity="0.5">
<mask id="mask0" mask-type="alpha" maskUnits="userSpaceOnUse" x="-9" y="-12" width="168" height="168">
<rect x="-8.91602" y="37.3625" width="69.8091" height="167.542" transform="rotate(-45 -8.91602 37.3625)" fill="#C4C4C4"/>
</mask>
<g mask="url(#mask0)">
<path d="M138.631 71.8232C138.631 106.966 110.143 135.454 74.9999 135.454C39.8573 135.454 11.3687 106.966 11.3687 71.8232C11.3687 36.6806 39.8573 8.19189 74.9999 8.19189C110.143 8.19189 138.631 36.6806 138.631 71.8232Z" stroke="white"/>
</g>
</g>
<g opacity="0.5">
<mask id="mask1" mask-type="alpha" maskUnits="userSpaceOnUse" x="-15" y="-1" width="180" height="146">
<rect x="-15" y="60.2603" width="69.8091" height="167.542" transform="rotate(-60 -15 60.2603)" fill="#C4C4C4"/>
</mask>
<g mask="url(#mask1)">
<path d="M146.077 72.0097C146.077 111.265 114.255 143.087 74.9995 143.087C35.7444 143.087 3.92188 111.265 3.92188 72.0097C3.92188 32.7547 35.7444 0.932129 74.9995 0.932129C114.255 0.932129 146.077 32.7547 146.077 72.0097Z" stroke="white"/>
</g>
</g>
<path d="M41.9419 80C41.7819 80 41.6459 79.944 41.5339 79.832C41.4219 79.72 41.3659 79.584 41.3659 79.424V63.8C41.3659 63.624 41.4219 63.48 41.5339 63.368C41.6459 63.256 41.7819 63.2 41.9419 63.2H48.3739C49.6219 63.2 50.7099 63.4 51.6379 63.8C52.5659 64.184 53.2859 64.776 53.7979 65.576C54.3099 66.36 54.5659 67.344 54.5659 68.528C54.5659 69.728 54.3099 70.72 53.7979 71.504C53.2859 72.272 52.5659 72.848 51.6379 73.232C50.7099 73.616 49.6219 73.808 48.3739 73.808H44.7979V79.424C44.7979 79.584 44.7419 79.72 44.6299 79.832C44.5339 79.944 44.3979 80 44.2219 80H41.9419ZM44.7499 71.144H48.2539C49.1819 71.144 49.8939 70.928 50.3899 70.496C50.8859 70.048 51.1339 69.392 51.1339 68.528C51.1339 67.728 50.9019 67.088 50.4379 66.608C49.9739 66.112 49.2459 65.864 48.2539 65.864H44.7499V71.144ZM61.6022 80C61.4422 80 61.3062 79.944 61.1942 79.832C61.0822 79.72 61.0262 79.584 61.0262 79.424V63.776C61.0262 63.616 61.0822 63.48 61.1942 63.368C61.3062 63.256 61.4422 63.2 61.6022 63.2H63.8342C63.9942 63.2 64.1302 63.256 64.2422 63.368C64.3542 63.48 64.4102 63.616 64.4102 63.776V77.144H72.0182C72.1942 77.144 72.3382 77.2 72.4502 77.312C72.5622 77.424 72.6182 77.568 72.6182 77.744V79.424C72.6182 79.584 72.5622 79.72 72.4502 79.832C72.3382 79.944 72.1942 80 72.0182 80H61.6022ZM77.7561 80C77.6281 80 77.5081 79.952 77.3961 79.856C77.3001 79.76 77.2521 79.64 77.2521 79.496C77.2521 79.432 77.2681 79.36 77.3001 79.28L83.0841 63.8C83.1321 63.64 83.2201 63.504 83.3481 63.392C83.4921 63.264 83.6841 63.2 83.9241 63.2H86.5401C86.7801 63.2 86.9641 63.264 87.0921 63.392C87.2201 63.504 87.3161 63.64 87.3801 63.8L93.1641 79.28C93.1801 79.36 93.1881 79.432 93.1881 79.496C93.1881 79.64 93.1401 79.76 93.0441 79.856C92.9481 79.952 92.8361 80 92.7081 80H90.6201C90.3961 80 90.2281 79.952 90.1161 79.856C90.0201 79.744 89.9561 79.64 89.9241 79.544L88.7961 76.616H81.6681L80.5401 79.544C80.5081 79.64 80.4361 79.744 80.3241 79.856C80.2281 79.952 80.0681 80 79.8441 80H77.7561ZM82.5081 73.856H87.9561L85.2201 66.44L82.5081 73.856ZM102.433 80C102.273 80 102.137 79.944 102.025 79.832C101.913 79.72 101.857 79.584 101.857 79.424V74L96.1926 63.968C96.1766 63.936 96.1606 63.896 96.1446 63.848C96.1286 63.8 96.1206 63.752 96.1206 63.704C96.1206 63.56 96.1686 63.44 96.2646 63.344C96.3606 63.248 96.4726 63.2 96.6006 63.2H98.7366C98.9286 63.2 99.0806 63.248 99.1926 63.344C99.3206 63.44 99.4086 63.544 99.4566 63.656L103.537 70.64L107.593 63.656C107.657 63.544 107.745 63.44 107.857 63.344C107.985 63.248 108.145 63.2 108.337 63.2H110.449C110.593 63.2 110.713 63.248 110.809 63.344C110.905 63.44 110.953 63.56 110.953 63.704C110.953 63.752 110.945 63.8 110.929 63.848C110.929 63.896 110.913 63.936 110.881 63.968L105.217 74V79.424C105.217 79.584 105.161 79.72 105.049 79.832C104.937 79.944 104.793 80 104.617 80H102.433Z" fill="white"/>
<defs>
<filter id="filter0_b" x="-20" y="-23" width="190" height="190" filterUnits="userSpaceOnUse" color-interpolation-filters="sRGB">
<feFlood flood-opacity="0" result="BackgroundImageFix"/>
<feGaussianBlur in="BackgroundImage" stdDeviation="20"/>
<feComposite in2="SourceAlpha" operator="in" result="effect1_backgroundBlur"/>
<feBlend mode="normal" in="SourceGraphic" in2="effect1_backgroundBlur" result="shape"/>
</filter>
</defs>
</svg>
