<svg width="32" height="32" viewBox="0 0 32 32" fill="none" xmlns="http://www.w3.org/2000/svg">
<path d="M25.429 6.57167C30.6356 11.7783 30.6356 20.221 25.429 25.4277C20.2223 30.6343 11.7796 30.6343 6.57297 25.4277C1.3663 20.221 1.3663 11.7783 6.57297 6.57167C11.7796 1.36501 20.2223 1.36501 25.429 6.57167" stroke="#470A68" stroke-width="1.5" stroke-linecap="round" stroke-linejoin="round"/>
<path d="M21.55 14.2336C21.55 13.8194 21.2142 13.4836 20.8 13.4836C20.3858 13.4836 20.05 13.8194 20.05 14.2336H21.55ZM10.6057 18.5912C10.3613 18.2567 9.89213 18.1836 9.55764 18.4279C9.22314 18.6722 9.15004 19.1414 9.39435 19.4759L10.6057 18.5912ZM9.87257 18.2942C9.46438 18.3646 9.19053 18.7526 9.2609 19.1608C9.33128 19.5689 9.71924 19.8428 10.1274 19.7724L9.87257 18.2942ZM11.8 18.4333L12.0383 19.1445C12.2839 19.0622 12.4696 18.859 12.5296 18.6071C12.5896 18.3551 12.5154 18.09 12.3332 17.9059L11.8 18.4333ZM11.2 11.2333L11.8606 10.8782C11.738 10.6501 11.5064 10.5014 11.248 10.4849C10.9896 10.4683 10.7409 10.5862 10.5902 10.7967L11.2 11.2333ZM14.8 14.2333L14.6229 14.9621C14.8422 15.0154 15.0739 14.9671 15.2537 14.8305C15.4334 14.694 15.5421 14.4837 15.5496 14.2581L14.8 14.2333ZM20.2 12.4333L19.5738 12.8461C19.7126 13.0566 19.9479 13.1833 20.2 13.1833V12.4333ZM22 12.4333L22.624 12.8493C22.7775 12.6192 22.7918 12.3233 22.6613 12.0794C22.5307 11.8356 22.2766 11.6833 22 11.6833V12.4333ZM20.176 13.8173C19.9462 14.1619 20.0393 14.6276 20.384 14.8574C20.7286 15.0871 21.1943 14.994 21.424 14.6493L20.176 13.8173ZM20.05 14.2336C20.05 16.1955 19.4901 17.8045 18.5126 18.9123C17.5454 20.0085 16.1093 20.6836 14.2 20.6836V22.1836C16.4907 22.1836 18.3546 21.3586 19.6374 19.9048C20.9099 18.4626 21.55 16.4716 21.55 14.2336H20.05ZM14.2 20.6836C13.1446 20.6836 12.4577 20.4126 11.9475 20.0516C11.4144 19.6744 11.0282 19.1698 10.6057 18.5912L9.39435 19.4759C9.80978 20.0447 10.3236 20.7401 11.081 21.276C11.8613 21.8282 12.8554 22.1836 14.2 22.1836V20.6836ZM10.1274 19.7724C10.1512 19.7683 10.1695 19.764 10.1758 19.7624C10.1844 19.7604 10.1913 19.7585 10.1954 19.7574C10.2036 19.7552 10.2102 19.7533 10.2135 19.7524C10.2205 19.7503 10.2265 19.7484 10.23 19.7473C10.2376 19.745 10.246 19.7423 10.2538 19.7398C10.27 19.7345 10.2917 19.7274 10.3174 19.719C10.369 19.702 10.441 19.6781 10.526 19.6499C10.6963 19.5933 10.9211 19.5182 11.145 19.4434C11.3689 19.3686 11.5923 19.2938 11.7596 19.2378C11.8432 19.2098 11.9129 19.1865 11.9617 19.1701C11.986 19.162 12.0052 19.1556 12.0182 19.1512C12.0248 19.149 12.0298 19.1473 12.0332 19.1462C12.0348 19.1456 12.0361 19.1452 12.037 19.1449C12.0374 19.1448 12.0377 19.1446 12.038 19.1446C12.0381 19.1445 12.0382 19.1445 12.0382 19.1445C12.0382 19.1445 12.0383 19.1445 12.0383 19.1445C12.0383 19.1445 12.0383 19.1445 11.8 18.4333C11.5617 17.7222 11.5617 17.7222 11.5617 17.7222C11.5617 17.7222 11.5617 17.7222 11.5616 17.7222C11.5616 17.7222 11.5615 17.7223 11.5614 17.7223C11.5612 17.7224 11.5609 17.7225 11.5604 17.7226C11.5596 17.7229 11.5583 17.7233 11.5566 17.7239C11.5533 17.725 11.5483 17.7267 11.5417 17.7289C11.5287 17.7332 11.5096 17.7396 11.4852 17.7478C11.4365 17.7641 11.3669 17.7874 11.2834 17.8154C11.1162 17.8714 10.8931 17.946 10.6695 18.0207C10.4458 18.0955 10.2219 18.1703 10.0528 18.2265C9.96813 18.2546 9.89786 18.2779 9.84842 18.2942C9.82352 18.3024 9.80502 18.3084 9.79299 18.3123C9.79007 18.3132 9.7878 18.314 9.78609 18.3145C9.7843 18.3151 9.7836 18.3153 9.78371 18.3153C9.7838 18.3152 9.78439 18.3151 9.78537 18.3148C9.78624 18.3145 9.78821 18.3139 9.79088 18.3131C9.793 18.3125 9.79867 18.3108 9.80615 18.3088C9.8099 18.3078 9.81651 18.3061 9.82484 18.3041C9.83086 18.3026 9.849 18.2983 9.87257 18.2942L10.1274 19.7724ZM12.3332 17.9059C10.5914 16.145 10.4622 13.5522 11.8098 11.6699L10.5902 10.7967C8.82583 13.2611 9.00059 16.6697 11.2668 18.9607L12.3332 17.9059ZM10.5394 11.5885C11.3505 13.0971 12.8812 14.5388 14.6229 14.9621L14.9771 13.5045C13.7508 13.2065 12.5255 12.1149 11.8606 10.8782L10.5394 11.5885ZM15.5496 14.2581C15.5728 13.5555 15.8195 12.9913 16.1948 12.6079C16.566 12.2285 17.1039 11.9833 17.8 11.9833V10.4833C16.7288 10.4833 15.7953 10.8714 15.1227 11.5588C14.4541 12.242 14.0845 13.1779 14.0504 14.2085L15.5496 14.2581ZM17.8 11.9833C18.3048 11.9833 18.6561 12.0789 18.9149 12.217C19.172 12.3542 19.3839 12.558 19.5738 12.8461L20.8262 12.0206C20.5274 11.5673 20.141 11.1711 19.6211 10.8937C19.1029 10.6171 18.4985 10.4833 17.8 10.4833V11.9833ZM20.2 13.1833H22V11.6833H20.2V13.1833ZM21.376 12.0173L20.176 13.8173L21.424 14.6493L22.624 12.8493L21.376 12.0173Z" fill="#470A68"/>
</svg>
