<svg width="13" height="13" viewBox="0 0 13 13" fill="none" xmlns="http://www.w3.org/2000/svg">
<path fill-rule="evenodd" clip-rule="evenodd" d="M10.6412 4.04503C10.3652 2.78547 9.21034 1.91654 7.92361 2.00033C6.63689 2.08411 5.60443 3.09545 5.49408 4.38017C5.48526 4.5239 5.54015 4.66423 5.64415 4.76383L7.9346 7.05428C8.03401 7.15826 8.17418 7.21316 8.31776 7.20435C9.0657 7.13916 9.74938 6.75512 10.1942 6.1503C10.639 5.54547 10.8019 4.77842 10.6412 4.04503V4.04503Z" stroke="#470A68" stroke-linecap="round" stroke-linejoin="round"/>
<path d="M7.94047 7.06177L3.63167 10.3196C3.39479 10.4979 3.06285 10.4749 2.85285 10.2656L2.43267 9.84593C2.22304 9.63583 2.20021 9.3034 2.37915 9.06661L5.63651 4.75781" stroke="#470A68" stroke-linecap="round" stroke-linejoin="round"/>
<path d="M2.64268 10.0555L1.69629 11.0019" stroke="#470A68" stroke-linecap="round" stroke-linejoin="round"/>
</svg>
