<svg width="176" height="294" viewBox="0 0 176 294" fill="none" xmlns="http://www.w3.org/2000/svg">
<path d="M3.91165 63.1768L43.6843 4.32855C44.2481 3.4943 45.358 3.05445 46.7925 3.10581C48.2159 3.15677 49.8659 3.69545 51.3437 4.6942L374.355 223.002C376.01 224.12 377.214 225.514 377.877 226.88C378.535 228.236 378.638 229.509 378.214 230.472L338.465 289.285C337.903 290.117 336.797 290.558 335.323 290.479C333.858 290.401 332.119 289.807 330.462 288.687L7.45076 70.3797C5.79394 69.2599 4.59402 67.8676 3.9755 66.5379C3.35287 65.1994 3.34961 64.0084 3.91165 63.1768Z" stroke="#DDDDDD"/>
</svg>
