<?xml version="1.0" encoding="UTF-8"?>
<svg width="72px" height="42px" viewBox="0 0 72 42" version="1.1" xmlns="http://www.w3.org/2000/svg" xmlns:xlink="http://www.w3.org/1999/xlink">
    <title>Shape</title>
    <g id="Symbols" stroke="none" stroke-width="1" fill="none" fill-rule="evenodd">
        <g id="top" transform="translate(-240.000000, -40.000000)" fill="#FFFFFF" fill-rule="nonzero">
            <g id="logo-claim">
                <g transform="translate(240.000000, 40.000000)">
                    <g id="LOGO_7_">
                        <path d="M57,6 C51.8,6 47.2,8.7 44.5,12.7 L33.5,29.3 C30.8,33.3 26.2,36 21,36 C12.7,36 6,29.3 6,21 C6,12.7 12.7,6 21,6 C26.2,6 30.7,8.6 33.4,12.6 L35.4,15.6 L39,10.2 L38.5,9.4 C34.7,3.7 28.3,0 21,0 C9.4,0 0,9.4 0,21 C0,32.6 9.4,42 21,42 C28.3,42 34.8,38.3 38.5,32.6 L42.6,26.4 L44.5,29.3 C47.2,33.3 51.8,36 57,36 C65.3,36 72,29.3 72,21 C72,12.7 65.3,6 57,6 Z M57,30 C53.9,30 51.1,28.4 49.5,25.9 L46.2,21 L49.5,16 C51.1,13.6 53.9,12 57,12 C62,12 66,16 66,21 C66,26 62,30 57,30 Z" id="Shape"></path>
                    </g>
                </g>
            </g>
        </g>
    </g>
</svg>