<svg width="1242" height="221" viewBox="0 0 1242 221" fill="none" xmlns="http://www.w3.org/2000/svg">
<g opacity="0.2">
<path d="M119.337 301.318H7.11871C3.43589 301.318 0.53125 298.389 0.53125 295.163V-72.7954C0.53125 -76.4153 3.44304 -79.3534 7.14389 -79.7329H119.337C123.001 -79.7329 125.924 -76.8224 125.924 -73.1869V294.772C125.924 298.407 123.001 301.318 119.337 301.318Z" stroke="white"/>
<path d="M894.916 110.795C894.916 217.381 807.73 304.06 700.511 304.06C593.291 304.06 506.105 217.381 506.105 110.795C506.105 4.20921 593.291 -82.4706 700.511 -82.4706C808.124 -82.4706 894.916 4.20856 894.916 110.795Z" stroke="white"/>
<path d="M1180.07 71.3676L1179.78 71.8013L1180.23 72.0768C1215.15 93.535 1238.28 127.455 1241.02 166.805C1245.72 237.305 1181.84 298.985 1097.77 304.062L1097.77 304.062C1029.43 308.357 970.1 276.73 929.999 241.554L929.994 241.549C927.435 239.369 927.078 235.747 928.894 233.218L928.894 233.218L928.901 233.209L988.357 146.308L988.665 145.858L988.19 145.59C953.673 126.093 930.944 91.0065 928.593 55.5684L928.593 55.5655C923.5 -14.931 987.381 -76.6111 1071.45 -81.6882L1071.45 -81.6882C1099.36 -83.447 1125.09 -81.687 1151.79 -73.1482C1178.49 -64.6091 1206.19 -49.2815 1238.05 -23.8677C1240.63 -21.668 1241.34 -18.0335 1239.52 -15.1333C1239.52 -15.1305 1239.52 -15.1276 1239.52 -15.1248L1180.07 71.3676Z" stroke="white"/>
<path d="M296.131 181.927H295.631V182.427V295.163C295.631 298.798 292.708 301.709 289.044 301.709H176.826C173.162 301.709 170.238 298.798 170.238 295.163V182.818V-72.7958C170.238 -76.4313 173.162 -79.3418 176.826 -79.3418H296.131H338.262C410.455 -79.3418 470.854 -22.7859 472.031 48.9518C473.207 122.262 413.979 181.927 340.625 181.927H296.131Z" stroke="white"/>
</g>
</svg>
