<svg width="192" height="363" viewBox="0 0 192 363" fill="none" xmlns="http://www.w3.org/2000/svg">
<path d="M262.268 3.25602L316.833 48.7269C317.607 49.3715 317.933 50.5199 317.739 51.942C317.545 53.3531 316.844 54.9408 315.702 56.311L66.1177 355.814C64.8389 357.349 63.3314 358.407 61.906 358.93C60.4904 359.449 59.2134 359.423 58.2978 358.905L3.76546 313.461C2.99437 312.819 2.66641 311.674 2.89235 310.215C3.1168 308.766 3.88235 307.095 5.16252 305.559L254.747 6.05534C256.027 4.5191 257.533 3.46478 258.917 2.98265C260.312 2.49732 261.497 2.61345 262.268 3.25602Z" stroke="#DDDDDD"/>
</svg>
