<svg width="22" height="23" viewBox="0 0 22 23" fill="none" xmlns="http://www.w3.org/2000/svg">
<path d="M6.41699 7.83333V4.16667C6.41699 3.66067 6.82766 3.25 7.33366 3.25H14.667C15.173 3.25 15.5837 3.66067 15.5837 4.16667V7.83333" stroke="#333333" stroke-width="1.25" stroke-linecap="round" stroke-linejoin="round"/>
<path d="M6.41667 16.084H4.58333C3.57042 16.084 2.75 15.2636 2.75 14.2507V9.66732C2.75 8.6544 3.57042 7.83398 4.58333 7.83398H17.4167C18.4296 7.83398 19.25 8.6544 19.25 9.66732V14.2507C19.25 15.2636 18.4296 16.084 17.4167 16.084H15.5833" stroke="#333333" stroke-width="1.25" stroke-linecap="round" stroke-linejoin="round"/>
<path fill-rule="evenodd" clip-rule="evenodd" d="M6.41699 13.1504H15.5837V18.8337C15.5837 19.3397 15.173 19.7504 14.667 19.7504H7.33366C6.82766 19.7504 6.41699 19.3397 6.41699 18.8337V13.1504Z" stroke="#333333" stroke-width="1.25" stroke-linecap="round" stroke-linejoin="round"/>
<path d="M6.41699 10.5833H7.33366" stroke="#323232" stroke-width="1.5" stroke-linecap="round" stroke-linejoin="round"/>
</svg>
