<svg width="190" height="332" viewBox="0 0 190 332" fill="none" xmlns="http://www.w3.org/2000/svg">
<path d="M137.919 328.194L185.774 275.707C186.452 274.963 186.619 273.781 186.232 272.399C185.848 271.027 184.937 269.55 183.619 268.348L-104.478 5.67876C-105.954 4.33286 -107.591 3.49039 -109.075 3.16693C-110.548 2.84569 -111.809 3.04512 -112.646 3.68368L-160.472 56.139C-161.148 56.8807 -161.317 58.0597 -160.894 59.4741C-160.474 60.8792 -159.488 62.4302 -158.01 63.7775L130.086 326.447C131.564 327.794 133.199 328.633 134.637 328.922C136.084 329.213 137.243 328.936 137.919 328.194Z" stroke="#DDDDDD"/>
</svg>
