<svg width="129" height="391" viewBox="0 0 129 391" fill="none" xmlns="http://www.w3.org/2000/svg">
<path opacity="0.2" d="M-138.865 38.1901L-77.3532 2.67611C-76.4811 2.17265 -75.2907 2.26277 -74.0232 2.93661C-72.7656 3.60522 -71.5177 4.81154 -70.6258 6.35621L124.307 343.989C125.305 345.719 125.778 347.499 125.776 349.017C125.775 350.525 125.31 351.715 124.507 352.395L63.0326 387.887C62.1634 388.389 60.9756 388.302 59.6844 387.586C58.4018 386.875 57.0978 385.58 56.0979 383.848L-138.834 46.2154C-139.834 44.4836 -140.304 42.7066 -140.278 41.2404C-140.253 39.7643 -139.735 38.692 -138.865 38.1901Z" stroke="#EBEBEB"/>
</svg>
