<svg width="393" height="205" viewBox="0 0 393 205" fill="none" xmlns="http://www.w3.org/2000/svg">
<path opacity="0.2" d="M36.9924 200.789L2.60892 138.638C2.12149 137.757 2.23336 136.568 2.93026 135.313C3.62175 134.068 4.85069 132.842 6.41141 131.979L347.552 -56.7478C349.3 -57.7148 351.088 -58.1547 352.606 -58.1255C354.113 -58.0964 355.294 -57.61 355.96 -56.7949L390.323 5.31849C390.808 6.19678 390.699 7.38272 389.96 8.6606C389.226 9.93002 387.907 11.2102 386.157 12.1782L45.0169 200.905C43.2671 201.873 41.4818 202.31 40.0163 202.258C38.5409 202.205 37.4783 201.667 36.9924 200.789Z" stroke="#EBEBEB"/>
</svg>
