<svg width="28" height="28" viewBox="0 0 28 28" fill="none" xmlns="http://www.w3.org/2000/svg">
<path fill-rule="evenodd" clip-rule="evenodd" d="M21.4817 7.483L18.1824 4.18367C17.7449 3.74617 17.151 3.5 16.5327 3.5H8.16536C6.8762 3.5 5.83203 4.54417 5.83203 5.83333V22.1667C5.83203 23.4558 6.8762 24.5 8.16536 24.5H19.832C21.1212 24.5 22.1654 23.4558 22.1654 22.1667V9.13267C22.1654 8.51433 21.9192 7.9205 21.4817 7.483V7.483Z" stroke="#470A68" stroke-width="1.25" stroke-linecap="round" stroke-linejoin="round"/>
<path d="M22.1654 9.33333H17.4987C16.8547 9.33333 16.332 8.81067 16.332 8.16667V3.5" stroke="#470A68" stroke-width="1.25" stroke-linecap="round" stroke-linejoin="round"/>
<path d="M12.0625 19.3083H15.9358" stroke="#470A68" stroke-width="1.25" stroke-linecap="round" stroke-linejoin="round"/>
<path fill-rule="evenodd" clip-rule="evenodd" d="M12.6367 14.8762V13.5135C12.6367 13.1379 12.9412 12.8334 13.3169 12.8334H14.6796C15.0552 12.8334 15.3597 13.1379 15.3597 13.5135V14.8762C15.3597 15.2519 15.0552 15.5564 14.6796 15.5564H13.3169C12.9412 15.5552 12.6367 15.2507 12.6367 14.8762Z" stroke="#470A68" stroke-width="1.25" stroke-linecap="round" stroke-linejoin="round"/>
<path fill-rule="evenodd" clip-rule="evenodd" d="M9.33203 20.3198V18.9571C9.33203 18.5815 9.63653 18.277 10.0122 18.277H11.3749C11.7505 18.277 12.055 18.5815 12.055 18.9571V20.3198C12.055 20.6955 11.7505 21 11.3749 21H10.0122C9.63653 21 9.33203 20.6955 9.33203 20.3198Z" stroke="#470A68" stroke-width="1.25" stroke-linecap="round" stroke-linejoin="round"/>
<path fill-rule="evenodd" clip-rule="evenodd" d="M15.9453 20.3198V18.9571C15.9453 18.5815 16.2498 18.277 16.6255 18.277H17.9881C18.3638 18.277 18.6683 18.5815 18.6683 18.9571V20.3198C18.6671 20.6955 18.3626 21 17.987 21H16.6243C16.2498 21 15.9453 20.6955 15.9453 20.3198H15.9453Z" stroke="#470A68" stroke-width="1.25" stroke-linecap="round" stroke-linejoin="round"/>
<path d="M16.6132 18.2817L14.8516 15.5283" stroke="#470A68" stroke-width="1.25" stroke-linecap="round" stroke-linejoin="round"/>
<path d="M11.3867 18.2817L13.1484 15.5283" stroke="#470A68" stroke-width="1.25" stroke-linecap="round" stroke-linejoin="round"/>
</svg>
