<svg width="80" height="80" viewBox="0 0 80 80" fill="none" xmlns="http://www.w3.org/2000/svg">
<path d="M23.6 67.0984C30.0065 67.0984 35.2 61.9049 35.2 55.4984C35.2 49.0919 30.0065 43.8984 23.6 43.8984C17.1935 43.8984 12 49.0919 12 55.4984C12 61.9049 17.1935 67.0984 23.6 67.0984Z" fill="#916CA4"/>
<path d="M55.1016 30.6992V22.6992" stroke="black" stroke-miterlimit="10" stroke-linecap="round" stroke-linejoin="round"/>
<path d="M32 60.6984H55.1V52.3984" stroke="black" stroke-miterlimit="10" stroke-linecap="round" stroke-linejoin="round"/>
<path d="M45.4984 13H20.3984V22.5V35.1V46.1" stroke="black" stroke-miterlimit="10" stroke-linecap="round" stroke-linejoin="round"/>
<path d="M46 13V22.2H55.1L46 13Z" stroke="black" stroke-miterlimit="10" stroke-linecap="round" stroke-linejoin="round"/>
<path d="M25.1016 23.3008H35.0016" stroke="black" stroke-miterlimit="10" stroke-linecap="round" stroke-linejoin="round"/>
<path d="M24.8984 27.6016H48.5984" stroke="black" stroke-miterlimit="10" stroke-linecap="round" stroke-linejoin="round"/>
<path d="M24.8984 32H48.5984" stroke="black" stroke-miterlimit="10" stroke-linecap="round" stroke-linejoin="round"/>
<path d="M24.8984 36.3008H48.5984" stroke="black" stroke-miterlimit="10" stroke-linecap="round" stroke-linejoin="round"/>
<path d="M24.8984 40.6992H40.1984" stroke="black" stroke-miterlimit="10" stroke-linecap="round" stroke-linejoin="round"/>
<path d="M47.7992 54.3984L40.6992 56.4984L42.7992 49.3984" stroke="black" stroke-miterlimit="10" stroke-linecap="round" stroke-linejoin="round"/>
<path d="M58.0008 32.6992L42.3008 48.4992L48.8008 54.9992L64.5008 39.1992L58.0008 32.6992Z" stroke="black" stroke-miterlimit="10" stroke-linecap="round" stroke-linejoin="round"/>
<path d="M59.8977 35.1992L44.5977 50.4992" stroke="black" stroke-miterlimit="10" stroke-linecap="round" stroke-linejoin="round"/>
<path d="M62.2977 37.0977L47.0977 52.3977" stroke="black" stroke-miterlimit="10" stroke-linecap="round" stroke-linejoin="round"/>
<path d="M67.3984 34.6983L68.7984 33.2983C68.9984 32.9983 68.9984 32.5983 68.6984 32.2983L64.7984 28.3983C64.4984 28.0983 64.0984 27.9983 63.7984 28.2983L62.3984 29.6983" stroke="black" stroke-miterlimit="10" stroke-linecap="round" stroke-linejoin="round"/>
<path d="M56.3984 34.198L60.0984 30.498L66.5984 36.998L62.8984 40.698" stroke="black" stroke-miterlimit="10" stroke-linecap="round" stroke-linejoin="round"/>
<path d="M23.5148 58.474C22.4466 58.474 21.6079 58.1745 20.9989 57.5754C20.3999 56.9664 20.0804 56.1178 20.0405 55.0296L20.0255 54.4305L20.0405 53.8315C20.0804 52.7433 20.3999 51.8996 20.9989 51.3006C21.6079 50.6916 22.4466 50.3871 23.5148 50.3871C24.2337 50.3871 24.8427 50.5169 25.3419 50.7765C25.841 51.036 26.2104 51.3555 26.4501 51.7349C26.6996 52.1143 26.8344 52.4937 26.8544 52.8731C26.8644 52.9729 26.8344 53.0528 26.7645 53.1127C26.6947 53.1726 26.6098 53.2025 26.51 53.2025H25.7911C25.6913 53.2025 25.6164 53.1826 25.5665 53.1426C25.5166 53.1027 25.4667 53.0228 25.4167 52.903C25.247 52.4238 25.0074 52.0843 24.6979 51.8847C24.3884 51.675 23.999 51.5702 23.5298 51.5702C22.9108 51.5702 22.4166 51.7649 22.0472 52.1542C21.6878 52.5336 21.4931 53.1177 21.4631 53.9064L21.4482 54.4455L21.4631 54.9547C21.4931 55.7534 21.6878 56.3424 22.0472 56.7218C22.4066 57.1012 22.9008 57.2909 23.5298 57.2909C23.999 57.2909 24.3884 57.1911 24.6979 56.9914C25.0074 56.7817 25.247 56.4373 25.4167 55.9581C25.4667 55.8383 25.5166 55.7584 25.5665 55.7184C25.6164 55.6685 25.6913 55.6436 25.7911 55.6436H26.51C26.6098 55.6436 26.6947 55.6785 26.7645 55.7484C26.8344 55.8083 26.8644 55.8882 26.8544 55.988C26.8344 56.3574 26.6996 56.7368 26.4501 57.1262C26.2104 57.5055 25.841 57.825 25.3419 58.0846C24.8526 58.3442 24.2436 58.474 23.5148 58.474Z" fill="black"/>
<path d="M23.5992 62.9016C27.6861 62.9016 30.9992 59.5885 30.9992 55.5016C30.9992 51.4147 27.6861 48.1016 23.5992 48.1016C19.5123 48.1016 16.1992 51.4147 16.1992 55.5016C16.1992 59.5885 19.5123 62.9016 23.5992 62.9016Z" stroke="black" stroke-miterlimit="10" stroke-linecap="round" stroke-linejoin="round"/>
</svg>
