<svg width="80" height="80" viewBox="0 0 80 80" fill="none" xmlns="http://www.w3.org/2000/svg">
<path d="M40.5 58.1016C50.165 58.1016 58 50.2665 58 40.6016C58 30.9366 50.165 23.1016 40.5 23.1016C30.835 23.1016 23 30.9366 23 40.6016C23 50.2665 30.835 58.1016 40.5 58.1016Z" fill="#916CA4"/>
<path d="M55.0984 39.9008C55.0984 31.8008 48.5984 25.3008 40.4984 25.3008C32.3984 25.3008 25.8984 31.8008 25.8984 39.9008C25.8984 46.0008 29.5984 51.2008 34.8984 53.4008V57.3008H45.9984V53.4008C51.3984 51.2008 55.0984 46.0008 55.0984 39.9008Z" stroke="black" stroke-miterlimit="10"/>
<path d="M43.2992 65.6016V66.3016L41.8992 68.4016H39.0992L37.6992 66.3016V65.6016" stroke="black" stroke-miterlimit="10"/>
<path d="M35 62.8984V65.5984H46.1V62.8984" stroke="black" stroke-miterlimit="10"/>
<path d="M32.8984 57.3008H40.4984H48.1985" stroke="black" stroke-miterlimit="10"/>
<path d="M32.8984 60.1016H40.4984H48.1985" stroke="black" stroke-miterlimit="10"/>
<path d="M32.8984 62.8984H40.4984H48.1985" stroke="black" stroke-miterlimit="10"/>
<path d="M41.6992 12V21.1" stroke="black" stroke-miterlimit="10" stroke-linecap="round"/>
<path d="M29.6992 15.1992L36.0992 21.6992" stroke="black" stroke-miterlimit="10" stroke-linecap="round"/>
<path d="M53.1992 15.1992L46.6992 21.6992" stroke="black" stroke-miterlimit="10" stroke-linecap="round"/>
<path d="M40.0997 39.8015C39.4997 39.9015 38.9997 40.4015 38.8997 41.0015C38.6997 41.8015 39.0997 42.5015 39.6997 42.9015V44.4015C39.6997 44.9015 40.0997 45.2015 40.4997 45.2015C40.9997 45.2015 41.2997 44.8015 41.2997 44.4015V42.9015C41.7997 42.6015 42.0997 42.1015 42.0997 41.5015C42.1997 40.3015 41.1997 39.5015 40.0997 39.8015Z" stroke="black" stroke-miterlimit="10"/>
<path d="M46.3992 48.402H34.6992V40.902C34.6992 38.502 36.6992 36.502 39.0992 36.502H41.8992C44.2992 36.502 46.2992 38.502 46.2992 40.902V48.402H46.3992Z" stroke="black" stroke-miterlimit="10"/>
<path d="M37.3984 36.4016V33.7016C37.3984 32.0016 38.7984 30.6016 40.4984 30.6016C42.1984 30.6016 43.5984 32.0016 43.5984 33.7016V36.4016" stroke="black" stroke-miterlimit="10"/>
</svg>
