<svg width="118" height="118" viewBox="0 0 118 118" fill="none" xmlns="http://www.w3.org/2000/svg">
<path d="M59.35 74.9501C76.6641 74.9501 90.7 60.8416 90.7 43.4379C90.7 26.0342 76.6641 11.9258 59.35 11.9258C42.0359 11.9258 28 26.0342 28 43.4379C28 60.8416 42.0359 74.9501 59.35 74.9501Z" fill="#916CA4"/>
<path d="M46.7266 21.2404H71.2706" stroke="black" stroke-width="1.5" stroke-miterlimit="10" stroke-linejoin="round"/>
<path d="M58.9986 51.9203C64.2122 51.9203 68.4386 47.6939 68.4386 42.4803C68.4386 37.2668 64.2122 33.0403 58.9986 33.0403C53.785 33.0403 49.5586 37.2668 49.5586 42.4803C49.5586 47.6939 53.785 51.9203 58.9986 51.9203Z" stroke="black" stroke-width="1.5" stroke-miterlimit="10" stroke-linecap="round" stroke-linejoin="round"/>
<path d="M59 73.1604V115.64" stroke="black" stroke-width="1.5" stroke-miterlimit="10" stroke-linecap="round" stroke-linejoin="round"/>
<path d="M101.48 35.4004V49.5604" stroke="black" stroke-width="1.5" stroke-miterlimit="10" stroke-linecap="round" stroke-linejoin="round"/>
<path d="M94.3984 42.4803H108.558" stroke="black" stroke-width="1.5" stroke-miterlimit="10" stroke-linecap="round" stroke-linejoin="round"/>
<path d="M110.918 87.3203V96.7603" stroke="black" stroke-width="1.5" stroke-miterlimit="10" stroke-linecap="round" stroke-linejoin="round"/>
<path d="M106.199 92.0403H115.639" stroke="black" stroke-width="1.5" stroke-miterlimit="10" stroke-linecap="round" stroke-linejoin="round"/>
<path d="M14.1602 44.8403V54.2803" stroke="black" stroke-width="1.5" stroke-miterlimit="10" stroke-linecap="round" stroke-linejoin="round"/>
<path d="M9.4375 49.5603H18.8775" stroke="black" stroke-width="1.5" stroke-miterlimit="10" stroke-linecap="round" stroke-linejoin="round"/>
<path d="M9.4375 73.1604V87.3204" stroke="black" stroke-width="1.5" stroke-miterlimit="10" stroke-linecap="round" stroke-linejoin="round"/>
<path d="M2.35938 80.2404H16.5194" stroke="black" stroke-width="1.5" stroke-miterlimit="10" stroke-linecap="round" stroke-linejoin="round"/>
<path d="M37.5234 56.6404C37.5234 80.4764 47.1994 108.56 47.1994 108.56H70.7994C70.7994 108.56 80.4754 80.4764 80.4754 56.6404C80.4754 26.6684 58.9994 2.36035 58.9994 2.36035C58.9994 2.36035 37.5234 26.6684 37.5234 56.6404Z" stroke="black" stroke-width="1.5" stroke-miterlimit="10" stroke-linecap="round" stroke-linejoin="round"/>
<path d="M38.9409 74.3403L25.9609 87.3203V115.64C25.9609 115.64 28.7929 101.48 43.1889 95.1083" stroke="black" stroke-width="1.5" stroke-miterlimit="10" stroke-linejoin="round"/>
<path d="M74.8125 95.1083C89.2085 101.48 92.0405 115.64 92.0405 115.64V87.3203L79.0605 74.3403" stroke="black" stroke-width="1.5" stroke-miterlimit="10" stroke-linejoin="round"/>
</svg>
