<svg width="32" height="32" viewBox="0 0 32 32" fill="none" xmlns="http://www.w3.org/2000/svg">
<path d="M25.429 6.57167C30.6356 11.7783 30.6356 20.221 25.429 25.4277C20.2223 30.6343 11.7796 30.6343 6.57297 25.4277C1.3663 20.221 1.3663 11.7783 6.57297 6.57167C11.7796 1.36501 20.2223 1.36501 25.429 6.57167" stroke="#470A68" stroke-width="1.5" stroke-linecap="round" stroke-linejoin="round"/>
<path fill-rule="evenodd" clip-rule="evenodd" d="M18.2511 16.4787L21.2551 14.442C21.7224 14.126 22.0017 13.5987 22.0017 13.0347V13.0347C22.0017 12.0947 21.2404 11.3333 20.3011 11.3333H11.7124C10.7731 11.3333 10.0117 12.0947 10.0117 13.034V13.034C10.0117 13.598 10.2911 14.1253 10.7584 14.442L13.7624 16.4787C15.1177 17.3973 16.8957 17.3973 18.2511 16.4787V16.4787Z" stroke="#470A68" stroke-width="1.5" stroke-linecap="round" stroke-linejoin="round"/>
<path d="M10 13.034V19.3333C10 20.438 10.8953 21.3333 12 21.3333H20C21.1047 21.3333 22 20.438 22 19.3333V13.0347" stroke="#470A68" stroke-width="1.5" stroke-linecap="round" stroke-linejoin="round"/>
</svg>
