<svg width="32" height="32" viewBox="0 0 32 32" fill="none" xmlns="http://www.w3.org/2000/svg">
<path d="M11.5319 14.0996V20.6449" stroke="#470A68" stroke-width="1.5" stroke-linecap="round" stroke-linejoin="round"/>
<path d="M15.8926 20.6449V16.8263C15.8926 15.3196 17.1126 14.0996 18.6192 14.0996V14.0996C20.1259 14.0996 21.3459 15.3196 21.3459 16.8263V20.6449" stroke="#470A68" stroke-width="1.5" stroke-linecap="round" stroke-linejoin="round"/>
<path d="M11.5286 10.1433C11.378 10.1433 11.2553 10.266 11.2566 10.4167C11.2566 10.5673 11.3793 10.69 11.53 10.69C11.6806 10.69 11.8033 10.5673 11.8033 10.4167C11.802 10.2647 11.6793 10.1433 11.5286 10.1433" stroke="#470A68" stroke-width="1.5" stroke-linecap="round" stroke-linejoin="round"/>
<path d="M25.429 6.57297C30.6356 11.7796 30.6356 20.2223 25.429 25.429C20.2223 30.6356 11.7796 30.6356 6.57297 25.429C1.3663 20.2223 1.3663 11.7796 6.57297 6.57297C11.7796 1.3663 20.2223 1.3663 25.429 6.57297" stroke="#470A68" stroke-width="1.5" stroke-linecap="round" stroke-linejoin="round"/>
</svg>
