<svg width="80" height="80" viewBox="0 0 80 80" fill="none" xmlns="http://www.w3.org/2000/svg">
<path d="M32.9461 36.9931C32.9461 42.9568 28.0162 47.8867 21.973 47.8867C15.9299 47.8867 11 43.0363 11 36.9931C11 31.0295 15.9299 26.0996 21.973 26.0996C28.0162 26.1791 32.9461 31.0295 32.9461 36.9931Z" fill="#916CA4"/>
<path d="M31.1172 25.0684L59.7425 32.2247V36.5185V40.7328L31.1172 47.8891" stroke="black" stroke-miterlimit="10" stroke-linecap="round" stroke-linejoin="round"/>
<path d="M31.1153 36.5175V24.4313C31.1153 23.6361 30.4792 23 29.6045 23C28.8094 23 28.0938 23.6361 28.0938 24.4313V48.5243C28.0938 49.3194 28.7299 49.9555 29.6045 49.9555C30.3997 49.9555 31.1153 49.3194 31.1153 48.5243V43.7534" stroke="black" stroke-miterlimit="10" stroke-linecap="round" stroke-linejoin="round"/>
<path d="M64.9902 41.4486L59.7422 40.6534V32.2248L64.9902 31.4297" stroke="black" stroke-miterlimit="10" stroke-linecap="round" stroke-linejoin="round"/>
<path d="M64.9883 41.0498C64.9883 42.004 65.7834 42.7196 66.6581 42.7196C67.5328 42.7196 68.4074 42.004 68.4074 41.0498V31.8261C68.4074 30.8719 67.6123 30.1562 66.6581 30.1562C65.7039 30.1562 64.9883 30.8719 64.9883 31.8261V34.0525" stroke="black" stroke-miterlimit="10" stroke-linecap="round" stroke-linejoin="round"/>
<path d="M53.6961 42.3223V55.1242C53.6961 56.0783 52.9009 56.8735 51.9467 56.8735H45.347C44.3928 56.8735 43.5977 56.0783 43.5977 55.1242L47.0963 43.9126" stroke="black" stroke-miterlimit="10" stroke-linecap="round" stroke-linejoin="round"/>
<path d="M24.9131 37.2344H14.0195" stroke="black" stroke-miterlimit="10" stroke-linecap="round" stroke-linejoin="round"/>
<path d="M24.9109 33.2566L18.3906 27.8496" stroke="black" stroke-miterlimit="10" stroke-linecap="round" stroke-linejoin="round"/>
<path d="M24.9109 40.5723L18.3906 45.8998" stroke="black" stroke-miterlimit="10" stroke-linecap="round" stroke-linejoin="round"/>
</svg>
