<svg width="81" height="80" viewBox="0 0 81 80" fill="none" xmlns="http://www.w3.org/2000/svg">
<path d="M35.3695 54.8016C43.709 54.8016 50.4695 48.0411 50.4695 39.7016C50.4695 31.3621 43.709 24.6016 35.3695 24.6016C27.03 24.6016 20.2695 31.3621 20.2695 39.7016C20.2695 48.0411 27.03 54.8016 35.3695 54.8016Z" fill="#916CA4"/>
<path d="M53.168 23.1L50.468 20.7L45.168 24.5C43.668 23.6 42.068 23 40.368 22.5L39.268 16H32.368L31.968 18.9L31.368 22.5C29.668 22.9 28.068 23.6 26.568 24.5L21.268 20.7L16.368 25.6L17.968 27.9L20.168 31C19.268 32.5 18.668 34.1 18.168 35.8L11.668 36.9V43.8L18.168 44.9C18.568 46.6 19.268 48.2 20.168 49.7L16.368 55.1L21.268 60L26.568 56.1C28.068 57 29.668 57.7 31.368 58.1L32.468 64.6H35.968" stroke="black" stroke-miterlimit="10" stroke-linecap="round" stroke-linejoin="round"/>
<path d="M35.9672 46.3992C39.3361 46.3992 42.0672 43.6682 42.0672 40.2992C42.0672 36.9303 39.3361 34.1992 35.9672 34.1992C32.5983 34.1992 29.8672 36.9303 29.8672 40.2992C29.8672 43.6682 32.5983 46.3992 35.9672 46.3992Z" stroke="black" stroke-miterlimit="10" stroke-linecap="round" stroke-linejoin="round"/>
<path d="M67.4664 22.999L63.3664 20.499C61.8664 19.599 59.8664 20.099 58.9664 21.599L41.2664 51.499L40.0664 64.599L50.8664 57.399L68.5664 27.499C69.5664 25.899 69.0664 23.899 67.4664 22.999Z" stroke="black" stroke-miterlimit="10" stroke-linecap="round" stroke-linejoin="round"/>
<path d="M57.5664 24.5996L66.4664 29.9996" stroke="black" stroke-miterlimit="10" stroke-linecap="round" stroke-linejoin="round"/>
<path d="M42.168 50.8984L50.968 56.2984" stroke="black" stroke-miterlimit="10" stroke-linecap="round" stroke-linejoin="round"/>
<path d="M41.0664 56.6992L46.4664 59.9992" stroke="black" stroke-miterlimit="10" stroke-linecap="round" stroke-linejoin="round"/>
<path d="M58.9664 32.5996L46.5664 53.5996" stroke="black" stroke-miterlimit="10" stroke-linecap="round" stroke-linejoin="round"/>
<path d="M36.1672 52.7992C29.3672 52.7992 23.8672 47.2992 23.8672 40.4992C23.8672 33.6992 29.3672 28.1992 36.1672 28.1992C41.2672 28.1992 45.6672 31.2992 47.5672 35.6992" stroke="black" stroke-miterlimit="10" stroke-linecap="round" stroke-linejoin="round"/>
</svg>
