<svg width="114" height="118" viewBox="0 0 114 118" fill="none" xmlns="http://www.w3.org/2000/svg">
<path d="M56.9984 106.95C74.3126 106.95 88.3484 92.8418 88.3484 75.4382C88.3484 58.0345 74.3126 43.926 56.9984 43.926C39.6843 43.926 25.6484 58.0345 25.6484 75.4382C25.6484 92.8418 39.6843 106.95 56.9984 106.95Z" fill="#916CA4"/>
<path fill-rule="evenodd" clip-rule="evenodd" d="M3.10659 77.9243C2.00614 76.0567 2.00614 73.6931 3.10659 71.8255C14.6887 52.0903 35.8465 35.0738 57.0043 35.0738C78.1621 35.0738 99.3138 52.0903 110.896 71.8194C111.996 73.6931 111.996 76.0628 110.896 77.9365C99.3138 97.6595 78.1621 114.676 57.0043 114.676C35.8465 114.676 14.6887 97.6595 3.10659 77.9243Z" stroke="black" stroke-width="1.5" stroke-linecap="round" stroke-linejoin="round"/>
<path d="M75.3632 56.8485C85.533 67.0909 85.533 83.6868 75.3632 93.9292C65.1934 104.172 48.7152 104.172 38.5453 93.9292C28.3755 83.6868 28.3755 67.0909 38.5453 56.8485C48.7152 46.606 65.2021 46.606 75.3632 56.8485" stroke="black" stroke-width="1.5" stroke-linecap="round" stroke-linejoin="round"/>
<line y1="-0.75" x2="52.2589" y2="-0.75" transform="matrix(0.704587 -0.709618 0.704587 0.709618 40.6797 95.0556)" stroke="black" stroke-width="1.5"/>
<path d="M33.9609 86.6494L68.6673 51.6952" stroke="black" stroke-width="1.5"/>
<path d="M30.543 76.316L43.9061 62.8574L57.2693 49.3988" stroke="black" stroke-width="1.5"/>
<path d="M60.4219 101.546L72.6451 89.2359L82.5882 79.2217" stroke="black" stroke-width="1.5"/>
<path d="M48.2773 100.742L82.0092 66.7693" stroke="black" stroke-width="1.5"/>
<path d="M57.0025 3.27785V19.2238" stroke="black" stroke-width="1.5" stroke-linecap="round" stroke-linejoin="round"/>
<path d="M12.6719 16.0347L23.3116 28.7914" stroke="black" stroke-width="1.5" stroke-linecap="round" stroke-linejoin="round"/>
<path d="M101.335 16.0347L90.6953 28.7914" stroke="black" stroke-width="1.5" stroke-linecap="round" stroke-linejoin="round"/>
</svg>
