<svg width="32" height="32" viewBox="0 0 32 32" fill="none" xmlns="http://www.w3.org/2000/svg">
<path d="M11.5339 14.0987V20.644" stroke="#470A68" stroke-width="1.5" stroke-linecap="round" stroke-linejoin="round"/>
<path d="M15.8945 20.644V16.8253C15.8945 15.3187 17.1145 14.0987 18.6212 14.0987V14.0987C20.1279 14.0987 21.3479 15.3187 21.3479 16.8253V20.644" stroke="#470A68" stroke-width="1.5" stroke-linecap="round" stroke-linejoin="round"/>
<path d="M11.5286 10.144C11.378 10.144 11.2553 10.2667 11.2566 10.4173C11.2566 10.568 11.3793 10.6907 11.53 10.6907C11.6806 10.6907 11.8033 10.568 11.8033 10.4173C11.802 10.2653 11.6793 10.144 11.5286 10.144" stroke="#470A68" stroke-width="1.5" stroke-linecap="round" stroke-linejoin="round"/>
<path d="M25.429 6.57201C30.6356 11.7787 30.6356 20.2213 25.429 25.428C20.2223 30.6347 11.7796 30.6347 6.57297 25.428C1.3663 20.2213 1.3663 11.7787 6.57297 6.57201C11.7796 1.36534 20.2223 1.36534 25.429 6.57201" stroke="#470A68" stroke-width="1.5" stroke-linecap="round" stroke-linejoin="round"/>
</svg>
