<svg width="140" height="115" viewBox="0 0 140 115" fill="none" xmlns="http://www.w3.org/2000/svg">
<path d="M48.1177 2.06021L47.8025 1.94558L47.4819 2.04422C39.8158 4.40302 32.5786 8.91391 25.7672 15.5307C18.9409 22.162 13.3986 30.4359 9.12979 40.3319L9.12649 40.3396L9.12332 40.3473C5.0382 50.2683 3 60.9586 3 72.408C3 85.767 5.70665 96.0141 11.2831 102.985C16.8498 109.943 24.1456 113.44 33.088 113.44C40.7983 113.44 47.1153 111.059 51.9391 106.235C56.7814 101.393 59.144 94.6788 59.144 86.232C59.144 78.9135 56.9618 72.6307 52.5714 67.4421C48.134 62.1978 42.0799 59.6 34.528 59.6C33.3663 59.6 32.4273 59.6241 31.7208 59.6746C31.6438 59.68 31.5688 59.6859 31.496 59.6922V57.144C31.496 49.8712 33.7315 42.5623 38.2597 35.2041L38.2597 35.2041L38.2655 35.1945C42.7913 27.6516 48.8224 21.5252 56.37 16.808L56.84 16.5143V15.96C56.84 12.8739 55.9125 9.99654 54.0855 7.34898C52.4701 4.7321 50.4917 2.92348 48.1177 2.06021ZM125.878 2.06021L125.563 1.94558L125.242 2.04422C117.576 4.40302 110.339 8.91391 103.527 15.5307C96.7009 22.162 91.1587 30.4359 86.8898 40.3319L86.8865 40.3396L86.8833 40.3473C82.7982 50.2683 80.76 60.9586 80.76 72.408C80.76 85.767 83.4667 96.0141 89.0431 102.985C94.6098 109.943 101.906 113.44 110.848 113.44C118.558 113.44 124.875 111.059 129.699 106.235C134.541 101.393 136.904 94.6788 136.904 86.232C136.904 78.9135 134.722 72.6307 130.331 67.4421C125.894 62.1978 119.84 59.6 112.288 59.6C111.126 59.6 110.187 59.6241 109.481 59.6746C109.404 59.68 109.329 59.6859 109.256 59.6922V57.144C109.256 49.8712 111.492 42.5623 116.02 35.2041L116.02 35.2041L116.025 35.1945C120.551 27.6516 126.582 21.5252 134.13 16.808L134.6 16.5143V15.96C134.6 12.8739 133.673 9.99662 131.846 7.34909C130.23 4.73215 128.252 2.92349 125.878 2.06021Z" stroke="#470A68" stroke-width="2"/>
<g clip-path="url(#clip0)">
<path d="M48.1177 2.06021L47.8025 1.94558L47.4819 2.04422C39.8158 4.40302 32.5786 8.91391 25.7672 15.5307C18.9409 22.162 13.3986 30.4359 9.12979 40.3319L9.12649 40.3396L9.12332 40.3473C5.0382 50.2683 3 60.9586 3 72.408C3 85.767 5.70665 96.0141 11.2831 102.985C16.8498 109.943 24.1456 113.44 33.088 113.44C40.7983 113.44 47.1153 111.059 51.9391 106.235C56.7814 101.393 59.144 94.6788 59.144 86.232C59.144 78.9135 56.9618 72.6307 52.5714 67.4421C48.134 62.1978 42.0799 59.6 34.528 59.6C33.3663 59.6 32.4273 59.6241 31.7208 59.6746C31.6438 59.68 31.5688 59.6859 31.496 59.6922V57.144C31.496 49.8712 33.7315 42.5623 38.2597 35.2041L38.2597 35.2041L38.2655 35.1945C42.7913 27.6516 48.8224 21.5252 56.37 16.808L56.84 16.5143V15.96C56.84 12.8739 55.9125 9.99654 54.0855 7.34898C52.4701 4.7321 50.4917 2.92348 48.1177 2.06021ZM125.878 2.06021L125.563 1.94558L125.242 2.04422C117.576 4.40302 110.339 8.91391 103.527 15.5307C96.7009 22.162 91.1587 30.4359 86.8898 40.3319L86.8865 40.3396L86.8833 40.3473C82.7982 50.2683 80.76 60.9586 80.76 72.408C80.76 85.767 83.4667 96.0141 89.0431 102.985C94.6098 109.943 101.906 113.44 110.848 113.44C118.558 113.44 124.875 111.059 129.699 106.235C134.541 101.393 136.904 94.6788 136.904 86.232C136.904 78.9135 134.722 72.6307 130.331 67.4421C125.894 62.1978 119.84 59.6 112.288 59.6C111.126 59.6 110.187 59.6241 109.481 59.6746C109.404 59.68 109.329 59.6859 109.256 59.6922V57.144C109.256 49.8712 111.492 42.5623 116.02 35.2041L116.02 35.2041L116.025 35.1945C120.551 27.6516 126.582 21.5252 134.13 16.808L134.6 16.5143V15.96C134.6 12.8739 133.673 9.99662 131.846 7.34909C130.23 4.73215 128.252 2.92349 125.878 2.06021Z" stroke="white" stroke-width="2"/>
</g>
<defs>
<clipPath id="clip0">
<rect width="140" height="42" fill="white" transform="translate(0 73)"/>
</clipPath>
</defs>
</svg>
