<svg width="25" height="25" viewBox="0 0 25 25" fill="none" xmlns="http://www.w3.org/2000/svg">
<path d="M13.382 15.7837C13.5892 15.9878 13.9102 15.9878 14.1174 15.7837C14.3267 15.5775 14.3267 15.2548 14.1174 15.0487L11.4687 12.4398L14.1174 9.8309C14.3267 9.62473 14.3267 9.30202 14.1174 9.09586C13.9102 8.89177 13.5892 8.89177 13.382 9.09586L10.36 12.0723C10.1507 12.2784 10.1507 12.6011 10.36 12.8073L13.382 15.7837Z" fill="#BFBFBF" stroke="#BFBFBF" stroke-width="0.5"/>
<path opacity="0.2" d="M1.33834 12.4397C1.33834 6.3185 6.37857 1.34336 12.612 1.34336C18.8455 1.34336 23.8857 6.31851 23.8857 12.4397C23.8857 18.561 18.8455 23.5361 12.612 23.5361C6.37857 23.5361 1.33834 18.561 1.33834 12.4397Z" stroke="#E8E8E8"/>
</svg>
