<svg width="57" height="156" viewBox="0 0 57 156" fill="none" xmlns="http://www.w3.org/2000/svg">
<path opacity="0.3" d="M55.5685 28.3458L33.3411 1.18917C33.1026 0.897829 32.6413 0.7346 31.9845 0.818702C31.3387 0.901398 30.5947 1.21903 29.9451 1.75069L-119.114 123.754C-119.848 124.355 -120.348 125.06 -120.595 125.715C-120.838 126.359 -120.819 126.899 -120.624 127.267L-98.4257 154.389C-98.1892 154.677 -97.7314 154.842 -97.0579 154.744C-96.394 154.647 -95.6067 154.299 -94.8711 153.697L54.1883 31.6935C54.9238 31.0915 55.4204 30.3885 55.6466 29.7568C55.876 29.116 55.805 28.6346 55.5685 28.3458Z" stroke="#DDDDDD"/>
</svg>
