<svg width="149" height="361" viewBox="0 0 149 361" fill="none" xmlns="http://www.w3.org/2000/svg">
<path d="M145.028 49.2101L90.8469 3.28208C90.0788 2.63099 88.8913 2.50706 87.5239 2.94373C86.1672 3.37701 84.7238 4.34108 83.5705 5.70165L-168.523 303.096C-169.815 304.62 -170.598 306.287 -170.867 307.781C-171.135 309.265 -170.89 310.518 -170.222 311.331L-116.074 357.231C-115.308 357.88 -114.124 358.006 -112.725 357.533C-111.336 357.062 -109.822 356.021 -108.529 354.495L143.565 57.1009C144.858 55.5755 145.637 53.9109 145.874 52.4637C146.112 51.0067 145.794 49.8591 145.028 49.2101Z" stroke="#DDDDDD"/>
</svg>
