<svg width="187" height="319" viewBox="0 0 187 319" fill="none" xmlns="http://www.w3.org/2000/svg">
<path opacity="0.3" d="M48.2114 314.486L3.22829 259.518C2.5906 258.739 2.48725 257.549 2.94752 256.19C3.40423 254.841 4.39314 253.414 5.77348 252.285L307.488 5.37762C309.034 4.11249 310.714 3.35869 312.212 3.11492C313.701 2.87282 314.95 3.13935 315.751 3.82167L360.707 58.7566C361.342 59.5333 361.448 60.7196 360.95 62.1094C360.456 63.49 359.388 64.9862 357.841 66.2526L56.1263 313.16C54.5788 314.426 52.901 315.177 51.4498 315.388C49.989 315.601 48.8471 315.263 48.2114 314.486Z" stroke="#DDDDDD"/>
</svg>
