<svg width="155" height="800" viewBox="0 0 155 800" fill="none" xmlns="http://www.w3.org/2000/svg">
<g opacity="0.2" clip-path="url(#clip0)">
<path d="M260.839 719.018V795.189C260.839 797.607 258.915 799.5 256.819 799.5H6.91072C4.54632 799.5 2.61311 797.6 2.35938 795.164L2.35938 719.018C2.35938 716.619 4.26488 714.707 6.64486 714.707H256.553C258.933 714.707 260.839 716.619 260.839 719.018Z" stroke="#DDDDDD"/>
<path d="M131.601 192.735C203.902 192.735 262.701 251.841 262.701 324.532C262.701 397.222 203.902 456.329 131.601 456.329C59.2996 456.329 0.5 397.222 0.5 324.532C0.5 251.575 59.2989 192.735 131.601 192.735Z" stroke="#DDDDDD"/>
<path d="M104.732 -0.852158L105.166 -0.554337L105.441 -1.00246C119.992 -24.6735 142.987 -40.3339 169.654 -42.1918C217.422 -45.3746 259.258 -2.10768 262.703 54.8919L262.703 54.8931C265.616 101.223 244.162 141.455 220.288 168.655L220.288 168.655L220.284 168.66C218.857 170.333 216.491 170.565 214.841 169.38L214.841 169.38L214.832 169.374L155.811 129.016L155.361 128.709L155.093 129.183C141.875 152.57 118.092 167.963 94.0817 169.555L94.0788 169.555C46.313 173.004 4.47564 129.74 1.03118 72.7384L1.03109 72.7371C-0.162568 53.8041 1.03237 36.3638 6.82398 18.2649C12.6159 0.1651 23.0142 -18.6222 40.2651 -40.2343C41.7113 -41.9248 44.09 -42.3887 45.9856 -41.2035L104.732 -0.852158Z" stroke="#DDDDDD"/>
<path d="M179.751 599.015V599.515H180.251H256.819C259.199 599.515 261.104 601.427 261.104 603.826V679.997C261.104 682.396 259.199 684.308 256.819 684.308H180.517H6.91048C4.53051 684.308 2.625 682.396 2.625 679.997L2.625 599.015L2.625 570.417C2.625 521.498 40.9707 480.576 89.601 479.779C139.301 478.982 179.751 519.112 179.751 568.814V599.015Z" stroke="#DDDDDD"/>
</g>
<defs>
<clipPath id="clip0">
<rect width="800" height="155" fill="white" transform="translate(0 800) rotate(-90)"/>
</clipPath>
</defs>
</svg>
