<svg width="151" height="293" viewBox="0 0 151 293" fill="none" xmlns="http://www.w3.org/2000/svg">
<path d="M3.74759 62.845L43.5202 3.99671C44.0841 3.16245 45.194 2.7226 46.6285 2.77396C48.0518 2.82492 49.7019 3.3636 51.1796 4.36236L374.191 222.67C375.846 223.788 377.05 225.182 377.713 226.548C378.371 227.904 378.474 229.178 378.05 230.141L338.301 288.953C337.739 289.785 336.633 290.226 335.159 290.147C333.694 290.069 331.955 289.475 330.298 288.355L7.2867 70.0478C5.62988 68.9281 4.42996 67.5358 3.81144 66.2061C3.18881 64.8676 3.18555 63.6766 3.74759 62.845Z" stroke="#DDDDDD"/>
</svg>
