<svg width="25" height="25" viewBox="0 0 25 25" fill="none" xmlns="http://www.w3.org/2000/svg">
<path d="M11.6766 9.09569C11.4694 8.89161 11.1484 8.89161 10.9412 9.09569C10.7319 9.30185 10.7319 9.62457 10.9412 9.83073L13.5899 12.4396L10.9412 15.0485C10.7319 15.2547 10.7319 15.5774 10.9412 15.7835C11.1484 15.9876 11.4694 15.9876 11.6766 15.7835L14.6985 12.8071C14.9078 12.601 14.9078 12.2783 14.6985 12.0721L11.6766 9.09569Z" fill="#BFBFBF" stroke="#BFBFBF" stroke-width="0.5"/>
<path opacity="0.2" d="M23.7202 12.4396C23.7202 18.5609 18.68 23.536 12.4465 23.536C6.21308 23.536 1.17285 18.5609 1.17285 12.4396C1.17285 6.31841 6.21308 1.34326 12.4465 1.34326C18.68 1.34326 23.7202 6.31841 23.7202 12.4396Z" stroke="#E8E8E8"/>
</svg>
