<svg width="12" height="16" viewBox="0 0 12 16" fill="none" xmlns="http://www.w3.org/2000/svg">
<path d="M7.77493 4.26666L4.3916 6.8" stroke="#777777" stroke-width="1.25" stroke-linecap="round" stroke-linejoin="round"/>
<path d="M10.171 1.86846C10.8323 2.52975 10.8323 3.60191 10.171 4.2632C9.50969 4.92448 8.43752 4.92448 7.77624 4.2632C7.11495 3.60191 7.11495 2.52975 7.77624 1.86846C8.43753 1.20718 9.50969 1.20718 10.171 1.86846" stroke="#777777" stroke-width="1.25" stroke-linecap="round" stroke-linejoin="round"/>
<path d="M7.77493 11.7333L4.3916 9.20001" stroke="#777777" stroke-width="1.25" stroke-linecap="round" stroke-linejoin="round"/>
<path d="M10.171 11.7368C10.8323 12.3981 10.8323 13.4703 10.171 14.1315C9.50969 14.7928 8.43752 14.7928 7.77624 14.1315C7.11495 13.4703 7.11495 12.3981 7.77624 11.7368C8.43753 11.0755 9.50969 11.0755 10.171 11.7368" stroke="#777777" stroke-width="1.25" stroke-linecap="round" stroke-linejoin="round"/>
<path d="M4.38785 6.80383C5.04849 7.46446 5.04849 8.53557 4.38785 9.1962C3.72722 9.85684 2.65611 9.85684 1.99548 9.1962C1.33484 8.53556 1.33484 7.46446 1.99548 6.80383C2.65611 6.14319 3.72722 6.14319 4.38785 6.80383" stroke="#777777" stroke-width="1.25" stroke-linecap="round" stroke-linejoin="round"/>
</svg>
