<?xml version="1.0" encoding="UTF-8"?>
<svg viewBox="0 0 267 150" version="1.1" xmlns="http://www.w3.org/2000/svg" xmlns:xlink="http://www.w3.org/1999/xlink">
    <title>Group</title>
    <defs>
        <rect id="path-1" x="0" y="0" width="267" height="150"></rect>
    </defs>
    <g id="Symbols" stroke="none" stroke-width="1" fill="none" fill-rule="evenodd">
        <g id="Group">
            <g id="Oval">
                <mask id="mask-2" fill="white">
                    <use xlink:href="#path-1"></use>
                </mask>
                <use id="Mask" fill="#282828" xlink:href="#path-1"></use>
                <ellipse fill="#424242" mask="url(#mask-2)" cx="181" cy="181.5" rx="62" ry="62.5"></ellipse>
                <circle fill="#4E4E4E" mask="url(#mask-2)" cx="71" cy="163" r="90"></circle>
            </g>
            <g id="image-file-landscape-2" transform="translate(105.000000, 41.000000)" stroke="#989898" stroke-linecap="round" stroke-linejoin="round" stroke-width="2">
                <g id="image-file-landscape">
                    <ellipse id="Oval" cx="17.0775" cy="25.0555556" rx="5.67" ry="5.55555556"></ellipse>
                    <path d="M32.45454,32.4944444 C32.1955089,32.0883571 31.7412415,31.8416614 31.2525,31.8416614 C30.7637585,31.8416614 30.3094911,32.0883571 30.05046,32.4944444 L22.568895,44.2222222 L19.52127,39.4388889 C19.2622389,39.0328015 18.8079715,38.7861059 18.31923,38.7861059 C17.8304885,38.7861059 17.3762211,39.0328015 17.11719,39.4388889 L8.5725,52.8333333 L45.4275,52.8333333 L32.45454,32.4944444 Z" id="Path"></path>
                    <path d="M53.101845,11.1666667 C53.6335475,11.6874798 53.9325,12.3939033 53.9325,13.1305556 L53.9325,61.1666667 C53.9325,62.700791 52.6632273,63.9444444 51.0975,63.9444444 L2.9025,63.9444444 C1.33677273,63.9444444 0.0675,62.700791 0.0675,61.1666667 L0.0675,2.83333333 C0.0675,1.29920903 1.33677273,0.0555555556 2.9025,0.0555555556 L40.588155,0.0555555556 C41.3399823,0.0555555556 42.0609581,0.348473959 42.5925,0.869444444 L53.101845,11.1666667 Z" id="Path"></path>
                </g>
            </g>
        </g>
    </g>
</svg>