<svg width="121" height="335" viewBox="0 0 121 335" fill="none" xmlns="http://www.w3.org/2000/svg">
<path d="M348.84 56.7309L300.585 4.61147C299.901 3.8726 298.737 3.60656 297.327 3.87536C295.928 4.14207 294.379 4.92528 293.071 6.13704L6.9932 271.004C5.52736 272.361 4.5495 273.921 4.10184 275.372C3.65725 276.813 3.74934 278.087 4.31494 278.974L52.5407 331.062C53.2227 331.798 54.3831 332.066 55.8282 331.764C57.2637 331.465 58.8926 330.613 60.3599 329.254L346.437 64.3879C347.905 63.0294 348.879 61.4709 349.288 60.0626C349.7 58.645 349.522 57.4674 348.84 56.7309Z" stroke="#DDDDDD"/>
</svg>
