<svg width="118" height="119" viewBox="0 0 118 119" fill="none" xmlns="http://www.w3.org/2000/svg">
<g id="Icons">
<rect width="118" height="118" transform="translate(0 0.5)" fill="white"/>
<g id="11">
<path id="Vector" d="M59 111.14C84.7768 111.14 105.673 90.2442 105.673 64.4674C105.673 38.6907 84.7768 17.7946 59 17.7946C33.2233 17.7946 12.3271 38.6907 12.3271 64.4674C12.3271 90.2442 33.2233 111.14 59 111.14Z" fill="#916CA4"/>
<path id="Vector_2" d="M23.5121 7L43.5589 27.0467C43.8878 27.3757 44.0729 27.8075 44.0729 28.3009C44.0729 28.7944 43.8673 29.2262 43.5589 29.5551L15.9047 57.2093C15.5757 57.5383 15.1439 57.7234 14.6505 57.7234C14.157 57.7234 13.7252 57.5178 13.3963 57.2093L4 47.8131" stroke="black" stroke-width="1.5" stroke-miterlimit="10" stroke-linecap="round"/>
<path id="Vector_3" d="M41.2561 31.8373L46.5813 37.1625H53.6748L57.2318 40.7195" stroke="black" stroke-width="1.5" stroke-miterlimit="10" stroke-linecap="round"/>
<path id="Vector_4" d="M73.2075 70.8822L82.3776 80.0522C84.3309 82.0055 87.5178 82.0055 89.4711 80.0522C91.4243 78.099 91.4243 74.9121 89.4711 72.9588L80.301 63.7887" stroke="black" stroke-width="1.5" stroke-miterlimit="10" stroke-linecap="round"/>
<path id="Vector_5" d="M66.0935 77.9755L75.2636 87.1456C77.2169 89.0989 80.4038 89.0989 82.3571 87.1456C84.3103 85.1924 84.3103 82.0054 82.3571 80.0522L73.187 70.8821" stroke="black" stroke-width="1.5" stroke-miterlimit="10" stroke-linecap="round"/>
<path id="Vector_6" d="M58.9999 85.069L68.17 94.2391C70.1232 96.1924 73.3102 96.1924 75.2634 94.2391C77.2167 92.2859 77.2167 89.0989 75.2634 87.1457L66.0933 77.9756" stroke="black" stroke-width="1.5" stroke-miterlimit="10" stroke-linecap="round"/>
<path id="Vector_7" d="M18.1869 54.9066L23.5121 60.2318V63.7889L61.0766 101.353C63.0299 103.307 66.2168 103.307 68.1701 101.353C70.1233 99.4001 70.1233 96.2132 68.1701 94.2599L59 85.0898" stroke="black" stroke-width="1.5" stroke-miterlimit="10" stroke-linecap="round"/>
<path id="Vector_8" d="M94.4879 7L74.4411 27.0467C74.1122 27.3757 73.9271 27.8075 73.9271 28.3009C73.9271 28.7944 74.1327 29.2262 74.4411 29.5551L102.095 57.2093C102.424 57.5383 102.856 57.7234 103.35 57.7234C103.843 57.7234 104.275 57.5178 104.604 57.2093L114 47.8131" stroke="black" stroke-width="1.5" stroke-miterlimit="10" stroke-linecap="round"/>
<path id="Vector_9" d="M99.8131 54.9066L94.4879 60.2318V63.7889L87.3944 70.8823" stroke="black" stroke-width="1.5" stroke-miterlimit="10" stroke-linecap="round"/>
<path id="Vector_10" d="M59 99.2561L56.9234 101.333C54.9701 103.286 51.7832 103.286 49.8299 101.333C47.8767 99.3794 47.8767 96.1925 49.8299 94.2392L51.9066 92.1626" stroke="black" stroke-width="1.5" stroke-miterlimit="10" stroke-linecap="round"/>
<path id="Vector_11" d="M51.9067 92.1625L49.83 94.2392C47.8767 96.1925 44.6898 96.1925 42.7366 94.2392C40.7833 92.2859 40.7833 89.099 42.7366 87.1457L44.8132 85.0691" stroke="black" stroke-width="1.5" stroke-miterlimit="10" stroke-linecap="round"/>
<path id="Vector_12" d="M44.813 85.069L42.7364 87.1457C40.7831 89.0989 37.5962 89.0989 35.6429 87.1457C33.6897 85.1924 33.6897 82.0055 35.6429 80.0522L37.7196 77.9756" stroke="black" stroke-width="1.5" stroke-miterlimit="10" stroke-linecap="round"/>
<path id="Vector_13" d="M37.7196 77.9755L35.643 80.0522C33.6897 82.0054 30.5028 82.0054 28.5495 80.0522C26.5963 78.0989 26.5963 74.912 28.5495 72.9587L30.6262 70.8821" stroke="black" stroke-width="1.5" stroke-miterlimit="10" stroke-linecap="round"/>
<path id="Vector_14" d="M87.3943 53.1382C87.3943 56.0784 85.0093 58.4634 82.0691 58.4634H78.5121C75.7981 58.4634 73.0635 57.4148 70.9868 55.3382C68.9102 53.2616 67.8616 50.527 67.8616 47.813H64.3046L55.4429 56.6747L53.3663 58.7513C51.413 60.7046 48.2261 60.7046 46.2728 58.7513C44.3195 56.798 44.3195 53.6111 46.2728 51.6578L48.3495 49.5812L60.7681 37.1625H71.4186L76.7438 31.8373" stroke="black" stroke-width="1.5" stroke-miterlimit="10" stroke-linecap="round"/>
</g>
</g>
</svg>
