<svg width="58" height="58" viewBox="0 0 58 58" fill="none" xmlns="http://www.w3.org/2000/svg">
<rect width="58" height="58" rx="29" fill="white"/>
<path fill-rule="evenodd" clip-rule="evenodd" d="M24.5 17H33.5C37.6415 17 41 20.3585 41 24.5V33.5C41 37.6415 37.6415 41 33.5 41H24.5C20.3585 41 17 37.6415 17 33.5V24.5C17 20.3585 20.3585 17 24.5 17ZM33.5 38.75C36.395 38.75 38.75 36.395 38.75 33.5V24.5C38.75 21.605 36.395 19.25 33.5 19.25H24.5C21.605 19.25 19.25 21.605 19.25 24.5V33.5C19.25 36.395 21.605 38.75 24.5 38.75H33.5ZM23 29C23 25.6865 25.6865 23 29 23C32.3135 23 35 25.6865 35 29C35 32.3135 32.3135 35 29 35C25.6865 35 23 32.3135 23 29ZM25.25 29C25.25 31.067 26.933 32.75 29 32.75C31.067 32.75 32.75 31.067 32.75 29C32.75 26.9315 31.067 25.25 29 25.25C26.933 25.25 25.25 26.9315 25.25 29ZM35.4499 23.3497C35.8915 23.3497 36.2494 22.9918 36.2494 22.5502C36.2494 22.1087 35.8915 21.7507 35.4499 21.7507C35.0084 21.7507 34.6504 22.1087 34.6504 22.5502C34.6504 22.9918 35.0084 23.3497 35.4499 23.3497Z" fill="#470A68"/>
</svg>
