<svg width="58" height="58" viewBox="0 0 58 58" fill="none" xmlns="http://www.w3.org/2000/svg">
<rect width="58" height="58" rx="29" fill="white"/>
<path d="M40 40H35.4437V32.8538C35.4437 31.1489 35.4125 28.957 33.0746 28.957C30.7019 28.957 30.3386 30.8136 30.3386 32.7304V40H25.7825V25.3049H30.1563V27.3126H30.2169C30.8253 26.1575 32.3125 24.9392 34.5307 24.9392C39.1476 24.9392 40 27.9828 40 31.9394V40ZM20.6443 23.2961C19.1828 23.2961 18 22.1091 18 20.6473C18 19.1866 19.1828 18 20.6443 18C22.1018 18 23.2864 19.1866 23.2864 20.6473C23.2864 22.1091 22.1018 23.2961 20.6443 23.2961ZM18.3635 40V25.3049H22.923V40H18.3635Z" fill="#470A68"/>
</svg>
