<svg width="58" height="58" viewBox="0 0 58 58" fill="none" xmlns="http://www.w3.org/2000/svg">
<rect width="58" height="58" rx="29" fill="white"/>
<path d="M26.0348 26.9645C16.6598 27.2318 16.6503 40.7215 26.0348 40.9984C29.8058 41.0843 33.195 37.8002 33.1377 34.0101L33.1186 25.4274C33.109 25.2174 33.3859 25.0742 33.5482 25.2174C35.1234 26.4299 37.0805 27.1363 39.0758 27.1841V23.8904C35.954 23.8236 33.2236 21.1218 33.1186 18H29.8058L29.7963 33.9814C29.7963 35.5948 28.7652 37.0269 27.2282 37.5328C24.9274 38.3634 22.2543 36.4827 22.2925 34.0387C22.197 31.6806 24.5933 29.7522 26.875 30.3345V27.0122C26.5981 26.9836 26.3117 26.9645 26.0348 26.9645Z" stroke="#470A68" stroke-width="1.75" stroke-miterlimit="10"/>
</svg>
