<svg width="58" height="58" viewBox="0 0 58 58" fill="none" xmlns="http://www.w3.org/2000/svg">
<rect width="58" height="58" rx="29" fill="white"/>
<path d="M42.8437 21.0222L41.8687 21.2446L41.8689 21.2453L42.8437 21.0222ZM40.3357 18.0903L40.6366 17.1367L40.6339 17.1358L40.3357 18.0903ZM42.8437 36.9776L43.8182 37.2019L43.8185 37.2007L42.8437 36.9776ZM40.3357 39.9095L40.0379 38.9548L40.0375 38.9549L40.3357 39.9095ZM18.1791 39.9095L17.8782 40.8631L17.8815 40.8641L18.1791 39.9095ZM15.6712 36.9776L16.6461 36.7552L16.646 36.7545L15.6712 36.9776ZM15.6712 21.0222L14.6966 20.7979L14.6964 20.7991L15.6712 21.0222ZM18.1791 18.0903L17.8815 17.1357L17.8813 17.1357L18.1791 18.0903ZM26.4247 33.2524H25.4247C25.4247 33.6097 25.6153 33.9398 25.9247 34.1184C26.2341 34.297 26.6153 34.297 26.9247 34.1184L26.4247 33.2524ZM33.7913 28.9991L34.2913 29.8652C34.6007 29.6865 34.7913 29.3564 34.7913 28.9991C34.7913 28.6419 34.6007 28.3118 34.2913 28.1331L33.7913 28.9991ZM26.4247 24.7459L26.9247 23.8799C26.6153 23.7013 26.2341 23.7012 25.9247 23.8799C25.6153 24.0585 25.4247 24.3886 25.4247 24.7459H26.4247ZM43.8186 20.7999C43.4281 19.0875 42.2497 17.6457 40.6366 17.1367L40.0348 19.044C40.8659 19.3063 41.61 20.1102 41.8687 21.2446L43.8186 20.7999ZM43.4349 28.9999C44.4349 28.9999 44.4349 28.9998 44.4349 28.9997C44.4349 28.9997 44.4349 28.9996 44.4349 28.9994C44.4349 28.9992 44.4349 28.9989 44.4349 28.9985C44.4349 28.9977 44.4349 28.9966 44.4349 28.9951C44.4349 28.9922 44.4349 28.988 44.4349 28.9826C44.4348 28.9717 44.4348 28.9558 44.4347 28.9351C44.4346 28.8937 44.4343 28.8332 44.4337 28.7555C44.4325 28.6002 44.4302 28.3762 44.4255 28.0997C44.4162 27.5471 44.3975 26.7827 44.36 25.9356C44.2863 24.2676 44.1367 22.1896 43.8185 20.7991L41.8689 21.2453C42.1419 22.438 42.2879 24.3489 42.362 26.0239C42.3984 26.8483 42.4167 27.594 42.4258 28.1336C42.4303 28.4032 42.4326 28.6208 42.4338 28.7706C42.4343 28.8455 42.4346 28.9034 42.4347 28.9423C42.4348 28.9617 42.4348 28.9764 42.4349 28.9861C42.4349 28.9909 42.4349 28.9945 42.4349 28.9968C42.4349 28.998 42.4349 28.9988 42.4349 28.9993C42.4349 28.9996 42.4349 28.9998 42.4349 28.9999C42.4349 28.9999 42.4349 28.9999 42.4349 28.9999C42.4349 28.9999 42.4349 28.9999 43.4349 28.9999ZM43.8185 37.2007C44.1367 35.8102 44.2863 33.7322 44.36 32.0642C44.3975 31.2171 44.4162 30.4527 44.4255 29.9001C44.4302 29.6236 44.4325 29.3996 44.4337 29.2443C44.4343 29.1666 44.4346 29.1061 44.4347 29.0647C44.4348 29.044 44.4348 29.0281 44.4349 29.0172C44.4349 29.0118 44.4349 29.0076 44.4349 29.0047C44.4349 29.0032 44.4349 29.0021 44.4349 29.0013C44.4349 29.0009 44.4349 29.0006 44.4349 29.0004C44.4349 29.0002 44.4349 29.0001 44.4349 29.0001C44.4349 29 44.4349 28.9999 43.4349 28.9999C42.4349 28.9999 42.4349 28.9999 42.4349 28.9999C42.4349 28.9999 42.4349 28.9999 42.4349 28.9999C42.4349 29 42.4349 29.0002 42.4349 29.0005C42.4349 29.001 42.4349 29.0018 42.4349 29.003C42.4349 29.0053 42.4349 29.0089 42.4349 29.0137C42.4348 29.0234 42.4348 29.0381 42.4347 29.0575C42.4346 29.0964 42.4343 29.1543 42.4338 29.2292C42.4326 29.379 42.4303 29.5966 42.4258 29.8662C42.4167 30.4058 42.3984 31.1515 42.362 31.9759C42.2879 33.6509 42.1419 35.5618 41.8689 36.7545L43.8185 37.2007ZM40.6335 40.8641C42.2467 40.3608 43.4237 38.916 43.8182 37.2019L41.8692 36.7533C41.6059 37.8972 40.8603 38.6982 40.0379 38.9548L40.6335 40.8641ZM29.2574 40.5999C29.2574 41.5999 29.2575 41.5999 29.2576 41.5999C29.2577 41.5999 29.2578 41.5999 29.258 41.5999C29.2583 41.5999 29.2588 41.5999 29.2593 41.5999C29.2605 41.5999 29.2622 41.5999 29.2645 41.5999C29.269 41.5999 29.2755 41.5999 29.2842 41.5999C29.3015 41.5999 29.3269 41.5998 29.3601 41.5997C29.4265 41.5996 29.5238 41.5992 29.6482 41.5985C29.8971 41.5972 30.2545 41.5945 30.69 41.589C31.5607 41.5782 32.7461 41.5565 34.0023 41.513C35.2567 41.4696 36.591 41.4041 37.757 41.305C38.891 41.2086 39.963 41.0735 40.6339 40.864L40.0375 38.9549C39.6032 39.0906 38.7379 39.2144 37.5876 39.3122C36.4691 39.4073 35.172 39.4713 33.9331 39.5142C32.696 39.557 31.5262 39.5785 30.6651 39.5892C30.2348 39.5946 29.8821 39.5972 29.6373 39.5986C29.5149 39.5992 29.4196 39.5996 29.355 39.5997C29.3227 39.5998 29.2981 39.5999 29.2817 39.5999C29.2735 39.5999 29.2673 39.5999 29.2632 39.5999C29.2612 39.5999 29.2597 39.5999 29.2587 39.5999C29.2582 39.5999 29.2579 39.5999 29.2577 39.5999C29.2576 39.5999 29.2575 39.5999 29.2574 39.5999C29.2574 39.5999 29.2574 39.5999 29.2574 40.5999ZM17.8815 40.8641C18.5531 41.0735 19.6253 41.2086 20.7597 41.305C21.9258 41.4041 23.26 41.4696 24.5141 41.513C25.7701 41.5565 26.955 41.5782 27.8254 41.589C28.2608 41.5945 28.6181 41.5972 28.8668 41.5985C28.9911 41.5992 29.0884 41.5996 29.1548 41.5997C29.1879 41.5998 29.2134 41.5999 29.2307 41.5999C29.2393 41.5999 29.2459 41.5999 29.2504 41.5999C29.2526 41.5999 29.2543 41.5999 29.2555 41.5999C29.2561 41.5999 29.2565 41.5999 29.2569 41.5999C29.257 41.5999 29.2572 41.5999 29.2572 41.5999C29.2573 41.5999 29.2574 41.5999 29.2574 40.5999C29.2574 39.5999 29.2574 39.5999 29.2574 39.5999C29.2573 39.5999 29.2573 39.5999 29.2572 39.5999C29.2569 39.5999 29.2566 39.5999 29.2561 39.5999C29.2551 39.5999 29.2536 39.5999 29.2516 39.5999C29.2475 39.5999 29.2414 39.5999 29.2332 39.5999C29.2168 39.5999 29.1922 39.5998 29.1599 39.5997C29.0954 39.5996 29 39.5992 28.8777 39.5986C28.633 39.5972 28.2805 39.5946 27.8503 39.5892C26.9895 39.5785 25.8201 39.557 24.5833 39.5142C23.3447 39.4713 22.0477 39.4073 20.9291 39.3122C19.7787 39.2144 18.9125 39.0906 18.4768 38.9548L17.8815 40.8641ZM14.6962 37.1999C15.0868 38.9123 16.2652 40.3541 17.8782 40.8631L18.4801 38.9558C17.6489 38.6936 16.9049 37.8896 16.6461 36.7552L14.6962 37.1999ZM15.08 28.9999C14.08 28.9999 14.08 29 14.08 29.0001C14.08 29.0001 14.08 29.0002 14.08 29.0004C14.08 29.0006 14.08 29.0009 14.08 29.0013C14.08 29.0021 14.08 29.0032 14.08 29.0047C14.08 29.0076 14.08 29.0118 14.08 29.0172C14.08 29.0281 14.08 29.044 14.0801 29.0647C14.0803 29.1061 14.0806 29.1666 14.0811 29.2443C14.0823 29.3996 14.0847 29.6236 14.0893 29.9001C14.0987 30.4527 14.1174 31.2171 14.1548 32.0642C14.2286 33.7322 14.3781 35.8102 14.6964 37.2007L16.646 36.7545C16.373 35.5618 16.2269 33.6509 16.1529 31.9759C16.1164 31.1515 16.0982 30.4058 16.0891 29.8662C16.0845 29.5966 16.0822 29.379 16.0811 29.2292C16.0805 29.1543 16.0802 29.0964 16.0801 29.0575C16.08 29.0381 16.08 29.0234 16.08 29.0137C16.08 29.0089 16.08 29.0053 16.08 29.003C16.08 29.0018 16.08 29.001 16.08 29.0005C16.08 29.0002 16.08 29 16.08 28.9999C16.08 28.9999 16.08 28.9999 16.08 28.9999C16.08 28.9999 16.08 28.9999 15.08 28.9999ZM14.6964 20.7991C14.3781 22.1896 14.2286 24.2676 14.1548 25.9356C14.1174 26.7827 14.0987 27.5471 14.0893 28.0997C14.0847 28.3762 14.0823 28.6002 14.0811 28.7555C14.0806 28.8332 14.0803 28.8937 14.0801 28.9351C14.08 28.9558 14.08 28.9717 14.08 28.9826C14.08 28.988 14.08 28.9922 14.08 28.9951C14.08 28.9966 14.08 28.9977 14.08 28.9985C14.08 28.9989 14.08 28.9992 14.08 28.9994C14.08 28.9996 14.08 28.9997 14.08 28.9997C14.08 28.9998 14.08 28.9999 15.08 28.9999C16.08 28.9999 16.08 28.9999 16.08 28.9999C16.08 28.9999 16.08 28.9999 16.08 28.9999C16.08 28.9998 16.08 28.9996 16.08 28.9993C16.08 28.9988 16.08 28.998 16.08 28.9968C16.08 28.9945 16.08 28.9909 16.08 28.9861C16.08 28.9764 16.08 28.9617 16.0801 28.9423C16.0802 28.9034 16.0805 28.8455 16.0811 28.7706C16.0822 28.6208 16.0845 28.4032 16.0891 28.1336C16.0982 27.594 16.1164 26.8483 16.1529 26.0239C16.2269 24.3489 16.373 22.438 16.646 21.2453L14.6964 20.7991ZM17.8813 17.1357C16.2681 17.639 15.0912 19.0838 14.6966 20.7979L16.6457 21.2465C16.909 20.1026 17.6545 19.3016 18.477 19.045L17.8813 17.1357ZM29.2574 17.3999C29.2574 16.3999 29.2573 16.3999 29.2572 16.3999C29.2572 16.3999 29.257 16.3999 29.2569 16.3999C29.2565 16.3999 29.2561 16.3999 29.2555 16.3999C29.2543 16.3999 29.2526 16.3999 29.2504 16.3999C29.2459 16.3999 29.2393 16.3999 29.2307 16.3999C29.2134 16.3999 29.1879 16.4 29.1548 16.4001C29.0884 16.4002 28.9911 16.4006 28.8668 16.4013C28.6181 16.4026 28.2608 16.4053 27.8254 16.4108C26.955 16.4216 25.7701 16.4433 24.5141 16.4868C23.26 16.5302 21.9258 16.5957 20.7597 16.6948C19.6253 16.7912 18.5531 16.9263 17.8815 17.1357L18.4768 19.045C18.9125 18.9092 19.7787 18.7854 20.9291 18.6876C22.0477 18.5925 23.3447 18.5285 24.5833 18.4856C25.8201 18.4428 26.9895 18.4213 27.8503 18.4106C28.2805 18.4053 28.633 18.4026 28.8777 18.4012C29 18.4006 29.0954 18.4002 29.1599 18.4001C29.1922 18.4 29.2168 18.3999 29.2332 18.3999C29.2414 18.3999 29.2475 18.3999 29.2516 18.3999C29.2536 18.3999 29.2551 18.3999 29.2561 18.3999C29.2566 18.3999 29.2569 18.3999 29.2572 18.3999C29.2573 18.3999 29.2573 18.3999 29.2574 18.3999C29.2574 18.3999 29.2574 18.3999 29.2574 17.3999ZM40.6339 17.1358C39.963 16.9263 38.891 16.7912 37.757 16.6948C36.591 16.5957 35.2567 16.5302 34.0023 16.4868C32.7461 16.4433 31.5607 16.4216 30.69 16.4108C30.2545 16.4053 29.8971 16.4026 29.6482 16.4013C29.5238 16.4006 29.4265 16.4002 29.3601 16.4001C29.3269 16.4 29.3015 16.3999 29.2842 16.3999C29.2755 16.3999 29.269 16.3999 29.2645 16.3999C29.2622 16.3999 29.2605 16.3999 29.2593 16.3999C29.2588 16.3999 29.2583 16.3999 29.258 16.3999C29.2578 16.3999 29.2577 16.3999 29.2576 16.3999C29.2575 16.3999 29.2574 16.3999 29.2574 17.3999C29.2574 18.3999 29.2574 18.3999 29.2574 18.3999C29.2575 18.3999 29.2576 18.3999 29.2577 18.3999C29.2579 18.3999 29.2582 18.3999 29.2587 18.3999C29.2597 18.3999 29.2612 18.3999 29.2632 18.3999C29.2673 18.3999 29.2735 18.3999 29.2817 18.3999C29.2981 18.3999 29.3227 18.4 29.355 18.4001C29.4196 18.4002 29.5149 18.4006 29.6373 18.4012C29.8821 18.4026 30.2348 18.4053 30.6651 18.4106C31.5262 18.4213 32.696 18.4428 33.9331 18.4856C35.172 18.5285 36.4691 18.5925 37.5876 18.6876C38.7379 18.7854 39.6032 18.9092 40.0375 19.0449L40.6339 17.1358ZM26.9247 34.1184L34.2913 29.8652L33.2913 28.1331L25.9247 32.3864L26.9247 34.1184ZM25.4247 24.7459V33.2524H27.4247V24.7459H25.4247ZM34.2913 28.1331L26.9247 23.8799L25.9247 25.6119L33.2913 29.8652L34.2913 28.1331Z" fill="#470A68"/>
</svg>
